<?xml version="1.0" encoding="UTF-8" standalone="no"?>
<svg
   width="120"
   height="105"
   viewBox="0 0 146 127"
   version="1.1"
   xml:space="preserve"
   style="fill-rule:evenodd;clip-rule:evenodd;stroke-linecap:square;stroke-linejoin:round;stroke-miterlimit:1.5;"
   id="svg44"
   sodipodi:docname="snowhex.svg"
   inkscape:version="1.4.1 (93de688d07, 2025-03-30)"
   xmlns:inkscape="http://www.inkscape.org/namespaces/inkscape"
   xmlns:sodipodi="http://sodipodi.sourceforge.net/DTD/sodipodi-0.dtd"
   xmlns="http://www.w3.org/2000/svg"
   xmlns:svg="http://www.w3.org/2000/svg"><defs
   id="defs44" /><sodipodi:namedview
   id="namedview44"
   pagecolor="#ffffff"
   bordercolor="#000000"
   borderopacity="0.25"
   inkscape:showpageshadow="2"
   inkscape:pageopacity="0.0"
   inkscape:pagecheckerboard="0"
   inkscape:deskcolor="#d1d1d1"
   inkscape:zoom="8.3809524"
   inkscape:cx="60.017045"
   inkscape:cy="52.5"
   inkscape:window-width="2048"
   inkscape:window-height="1088"
   inkscape:window-x="0"
   inkscape:window-y="0"
   inkscape:window-maximized="1"
   inkscape:current-layer="g44" />
    <g
   transform="matrix(3.70564,0,0,3.70564,-2392.5,-1469.65)"
   id="g44">
        <g
   transform="matrix(4.14204e-18,0.0676446,-0.0676446,4.14204e-18,712.424,381.414)"
   id="g1"
   style="fill:#ffffff;fill-opacity:1">
            <path
   d="M477,415L721.219,556L721.219,838L477,979L232.781,838L232.781,556L477,415Z"
   style="fill:#ffffff;stroke:black;stroke-width:16.62px;fill-opacity:1"
   id="path1" />
        </g>
        <g
   transform="matrix(0.0359855,0,0,0.0359855,626.822,410.682)"
   id="g15">
            <g
   transform="matrix(1,0,0,1,-40.6641,-0.664057)"
   id="g2">
                <path
   d="M954.664,168L954.664,308.664L1076.48,238.332L954.664,308.664L1076.48,378.996L954.664,308.664L954.664,449.328L954.664,308.664L832.845,378.996L954.664,308.664L832.845,238.332L954.664,308.664L954.664,168Z"
   style="fill:rgb(153,153,153);fill-opacity:0;stroke:black;stroke-width:15.62px;stroke-linecap:round;stroke-miterlimit:4;"
   id="path2" />
            </g>
            <g
   transform="matrix(1,0,0,1,0,40)"
   id="g3">
                <path
   d="M914,167.336C922.763,158.573 931.526,149.81 940.288,141.048"
   style="fill:none;stroke:black;stroke-width:15.62px;stroke-linecap:round;stroke-miterlimit:4;"
   id="path3" />
            </g>
            <g
   transform="matrix(0.499492,0.866318,-0.866318,0.499492,688.249,-616.604)"
   id="g4">
                <path
   d="M914,167.336C922.763,158.573 931.526,149.81 940.288,141.048"
   style="fill:none;stroke:black;stroke-width:15.62px;stroke-linecap:round;stroke-miterlimit:4;"
   id="path4" />
            </g>
            <g
   transform="matrix(1,0,0,1,0,40)"
   id="g5">
                <path
   d="M914,167.336C905.171,158.507 896.341,149.677 887.512,140.848"
   style="fill:none;stroke:black;stroke-width:15.62px;stroke-linecap:round;stroke-miterlimit:4;"
   id="path5" />
            </g>
            <g
   transform="matrix(0.499492,0.866318,-0.866318,0.499492,688.249,-616.604)"
   id="g6">
                <path
   d="M914,167.336C905.171,158.507 896.341,149.677 887.512,140.848"
   style="fill:none;stroke:black;stroke-width:15.62px;stroke-linecap:round;stroke-miterlimit:4;"
   id="path6" />
            </g>
            <g
   transform="matrix(-1,-0.00029897,0.00029897,-1,1827.92,576.273)"
   id="g7">
                <path
   d="M914,167.336C922.763,158.573 931.526,149.81 940.288,141.048"
   style="fill:none;stroke:black;stroke-width:15.62px;stroke-linecap:round;stroke-miterlimit:4;"
   id="path7" />
            </g>
            <g
   transform="matrix(-0.499233,-0.866468,0.866468,-0.499233,1139.47,1232.67)"
   id="g8">
                <path
   d="M914,167.336C922.763,158.573 931.526,149.81 940.288,141.048"
   style="fill:none;stroke:black;stroke-width:15.62px;stroke-linecap:round;stroke-miterlimit:4;"
   id="path8" />
            </g>
            <g
   transform="matrix(-1,-0.00029897,0.00029897,-1,1827.92,576.273)"
   id="g9">
                <path
   d="M914,167.336C905.171,158.507 896.341,149.677 887.512,140.848"
   style="fill:none;stroke:black;stroke-width:15.62px;stroke-linecap:round;stroke-miterlimit:4;"
   id="path9" />
            </g>
            <g
   transform="matrix(-0.499233,-0.866468,0.866468,-0.499233,1139.47,1232.67)"
   id="g10">
                <path
   d="M914,167.336C905.171,158.507 896.341,149.677 887.512,140.848"
   style="fill:none;stroke:black;stroke-width:15.62px;stroke-linecap:round;stroke-miterlimit:4;"
   id="path10" />
            </g>
            <g
   transform="matrix(0.499628,-0.86624,0.86624,0.499628,225.188,965.843)"
   id="g11">
                <path
   d="M914,167.336C922.763,158.573 931.526,149.81 940.288,141.048"
   style="fill:none;stroke:black;stroke-width:15.62px;stroke-linecap:round;stroke-miterlimit:4;"
   id="path11" />
            </g>
            <g
   transform="matrix(0.499628,-0.86624,0.86624,0.499628,225.188,965.843)"
   id="g12">
                <path
   d="M914,167.336C905.171,158.507 896.341,149.677 887.512,140.848"
   style="fill:none;stroke:black;stroke-width:15.62px;stroke-linecap:round;stroke-miterlimit:4;"
   id="path12" />
            </g>
            <g
   transform="matrix(-0.499887,0.866091,-0.866091,-0.499887,1603.01,-349.637)"
   id="g13">
                <path
   d="M914,167.336C922.763,158.573 931.526,149.81 940.288,141.048"
   style="fill:none;stroke:black;stroke-width:15.62px;stroke-linecap:round;stroke-miterlimit:4;"
   id="path13" />
            </g>
            <g
   transform="matrix(-0.499887,0.866091,-0.866091,-0.499887,1603.01,-349.637)"
   id="g14">
                <path
   d="M914,167.336C905.171,158.507 896.341,149.677 887.512,140.848"
   style="fill:none;stroke:black;stroke-width:15.62px;stroke-linecap:round;stroke-miterlimit:4;"
   id="path14" />
            </g>
        </g>
        <g
   transform="matrix(0.0359855,0,0,0.0359855,640.756,402.597)"
   id="g29">
            <g
   transform="matrix(1,0,0,1,-40.6641,-0.664057)"
   id="g16">
                <path
   d="M954.664,168L954.664,308.664L1076.48,238.332L954.664,308.664L1076.48,378.996L954.664,308.664L954.664,449.328L954.664,308.664L832.845,378.996L954.664,308.664L832.845,238.332L954.664,308.664L954.664,168Z"
   style="fill:rgb(153,153,153);fill-opacity:0;stroke:black;stroke-width:15.62px;stroke-linecap:round;stroke-miterlimit:4;"
   id="path15" />
            </g>
            <g
   transform="matrix(1,0,0,1,0,40)"
   id="g17">
                <path
   d="M914,167.336C922.763,158.573 931.526,149.81 940.288,141.048"
   style="fill:none;stroke:black;stroke-width:15.62px;stroke-linecap:round;stroke-miterlimit:4;"
   id="path16" />
            </g>
            <g
   transform="matrix(0.499492,0.866318,-0.866318,0.499492,688.249,-616.604)"
   id="g18">
                <path
   d="M914,167.336C922.763,158.573 931.526,149.81 940.288,141.048"
   style="fill:none;stroke:black;stroke-width:15.62px;stroke-linecap:round;stroke-miterlimit:4;"
   id="path17" />
            </g>
            <g
   transform="matrix(1,0,0,1,0,40)"
   id="g19">
                <path
   d="M914,167.336C905.171,158.507 896.341,149.677 887.512,140.848"
   style="fill:none;stroke:black;stroke-width:15.62px;stroke-linecap:round;stroke-miterlimit:4;"
   id="path18" />
            </g>
            <g
   transform="matrix(0.499492,0.866318,-0.866318,0.499492,688.249,-616.604)"
   id="g20">
                <path
   d="M914,167.336C905.171,158.507 896.341,149.677 887.512,140.848"
   style="fill:none;stroke:black;stroke-width:15.62px;stroke-linecap:round;stroke-miterlimit:4;"
   id="path19" />
            </g>
            <g
   transform="matrix(-1,-0.00029897,0.00029897,-1,1827.92,576.273)"
   id="g21">
                <path
   d="M914,167.336C922.763,158.573 931.526,149.81 940.288,141.048"
   style="fill:none;stroke:black;stroke-width:15.62px;stroke-linecap:round;stroke-miterlimit:4;"
   id="path20" />
            </g>
            <g
   transform="matrix(-0.499233,-0.866468,0.866468,-0.499233,1139.47,1232.67)"
   id="g22">
                <path
   d="M914,167.336C922.763,158.573 931.526,149.81 940.288,141.048"
   style="fill:none;stroke:black;stroke-width:15.62px;stroke-linecap:round;stroke-miterlimit:4;"
   id="path21" />
            </g>
            <g
   transform="matrix(-1,-0.00029897,0.00029897,-1,1827.92,576.273)"
   id="g23">
                <path
   d="M914,167.336C905.171,158.507 896.341,149.677 887.512,140.848"
   style="fill:none;stroke:black;stroke-width:15.62px;stroke-linecap:round;stroke-miterlimit:4;"
   id="path22" />
            </g>
            <g
   transform="matrix(-0.499233,-0.866468,0.866468,-0.499233,1139.47,1232.67)"
   id="g24">
                <path
   d="M914,167.336C905.171,158.507 896.341,149.677 887.512,140.848"
   style="fill:none;stroke:black;stroke-width:15.62px;stroke-linecap:round;stroke-miterlimit:4;"
   id="path23" />
            </g>
            <g
   transform="matrix(0.499628,-0.86624,0.86624,0.499628,225.188,965.843)"
   id="g25">
                <path
   d="M914,167.336C922.763,158.573 931.526,149.81 940.288,141.048"
   style="fill:none;stroke:black;stroke-width:15.62px;stroke-linecap:round;stroke-miterlimit:4;"
   id="path24" />
            </g>
            <g
   transform="matrix(0.499628,-0.86624,0.86624,0.499628,225.188,965.843)"
   id="g26">
                <path
   d="M914,167.336C905.171,158.507 896.341,149.677 887.512,140.848"
   style="fill:none;stroke:black;stroke-width:15.62px;stroke-linecap:round;stroke-miterlimit:4;"
   id="path25" />
            </g>
            <g
   transform="matrix(-0.499887,0.866091,-0.866091,-0.499887,1603.01,-349.637)"
   id="g27">
                <path
   d="M914,167.336C922.763,158.573 931.526,149.81 940.288,141.048"
   style="fill:none;stroke:black;stroke-width:15.62px;stroke-linecap:round;stroke-miterlimit:4;"
   id="path26" />
            </g>
            <g
   transform="matrix(-0.499887,0.866091,-0.866091,-0.499887,1603.01,-349.637)"
   id="g28">
                <path
   d="M914,167.336C905.171,158.507 896.341,149.677 887.512,140.848"
   style="fill:none;stroke:black;stroke-width:15.62px;stroke-linecap:round;stroke-miterlimit:4;"
   id="path27" />
            </g>
        </g>
        <g
   transform="matrix(0.0359855,0,0,0.0359855,630.137,393.388)"
   id="g43">
            <g
   transform="matrix(1,0,0,1,-40.6641,-0.664057)"
   id="g30">
                <path
   d="M954.664,168L954.664,308.664L1076.48,238.332L954.664,308.664L1076.48,378.996L954.664,308.664L954.664,449.328L954.664,308.664L832.845,378.996L954.664,308.664L832.845,238.332L954.664,308.664L954.664,168Z"
   style="fill:rgb(153,153,153);fill-opacity:0;stroke:black;stroke-width:15.62px;stroke-linecap:round;stroke-miterlimit:4;"
   id="path29" />
            </g>
            <g
   transform="matrix(1,0,0,1,0,40)"
   id="g31">
                <path
   d="M914,167.336C922.763,158.573 931.526,149.81 940.288,141.048"
   style="fill:none;stroke:black;stroke-width:15.62px;stroke-linecap:round;stroke-miterlimit:4;"
   id="path30" />
            </g>
            <g
   transform="matrix(0.499492,0.866318,-0.866318,0.499492,688.249,-616.604)"
   id="g32">
                <path
   d="M914,167.336C922.763,158.573 931.526,149.81 940.288,141.048"
   style="fill:none;stroke:black;stroke-width:15.62px;stroke-linecap:round;stroke-miterlimit:4;"
   id="path31" />
            </g>
            <g
   transform="matrix(1,0,0,1,0,40)"
   id="g33">
                <path
   d="M914,167.336C905.171,158.507 896.341,149.677 887.512,140.848"
   style="fill:none;stroke:black;stroke-width:15.62px;stroke-linecap:round;stroke-miterlimit:4;"
   id="path32" />
            </g>
            <g
   transform="matrix(0.499492,0.866318,-0.866318,0.499492,688.249,-616.604)"
   id="g34">
                <path
   d="M914,167.336C905.171,158.507 896.341,149.677 887.512,140.848"
   style="fill:none;stroke:black;stroke-width:15.62px;stroke-linecap:round;stroke-miterlimit:4;"
   id="path33" />
            </g>
            <g
   transform="matrix(-1,-0.00029897,0.00029897,-1,1827.92,576.273)"
   id="g35">
                <path
   d="M914,167.336C922.763,158.573 931.526,149.81 940.288,141.048"
   style="fill:none;stroke:black;stroke-width:15.62px;stroke-linecap:round;stroke-miterlimit:4;"
   id="path34" />
            </g>
            <g
   transform="matrix(-0.499233,-0.866468,0.866468,-0.499233,1139.47,1232.67)"
   id="g36">
                <path
   d="M914,167.336C922.763,158.573 931.526,149.81 940.288,141.048"
   style="fill:none;stroke:black;stroke-width:15.62px;stroke-linecap:round;stroke-miterlimit:4;"
   id="path35" />
            </g>
            <g
   transform="matrix(-1,-0.00029897,0.00029897,-1,1827.92,576.273)"
   id="g37">
                <path
   d="M914,167.336C905.171,158.507 896.341,149.677 887.512,140.848"
   style="fill:none;stroke:black;stroke-width:15.62px;stroke-linecap:round;stroke-miterlimit:4;"
   id="path36" />
            </g>
            <g
   transform="matrix(-0.499233,-0.866468,0.866468,-0.499233,1139.47,1232.67)"
   id="g38">
                <path
   d="M914,167.336C905.171,158.507 896.341,149.677 887.512,140.848"
   style="fill:none;stroke:black;stroke-width:15.62px;stroke-linecap:round;stroke-miterlimit:4;"
   id="path37" />
            </g>
            <g
   transform="matrix(0.499628,-0.86624,0.86624,0.499628,225.188,965.843)"
   id="g39">
                <path
   d="M914,167.336C922.763,158.573 931.526,149.81 940.288,141.048"
   style="fill:none;stroke:black;stroke-width:15.62px;stroke-linecap:round;stroke-miterlimit:4;"
   id="path38" />
            </g>
            <g
   transform="matrix(0.499628,-0.86624,0.86624,0.499628,225.188,965.843)"
   id="g40">
                <path
   d="M914,167.336C905.171,158.507 896.341,149.677 887.512,140.848"
   style="fill:none;stroke:black;stroke-width:15.62px;stroke-linecap:round;stroke-miterlimit:4;"
   id="path39" />
            </g>
            <g
   transform="matrix(-0.499887,0.866091,-0.866091,-0.499887,1603.01,-349.637)"
   id="g41">
                <path
   d="M914,167.336C922.763,158.573 931.526,149.81 940.288,141.048"
   style="fill:none;stroke:black;stroke-width:15.62px;stroke-linecap:round;stroke-miterlimit:4;"
   id="path40" />
            </g>
            <g
   transform="matrix(-0.499887,0.866091,-0.866091,-0.499887,1603.01,-349.637)"
   id="g42">
                <path
   d="M914,167.336C905.171,158.507 896.341,149.677 887.512,140.848"
   style="fill:none;stroke:black;stroke-width:15.62px;stroke-linecap:round;stroke-miterlimit:4;"
   id="path41" />
            </g>
        </g>
    </g>
</svg>
