<?xml version="1.0" encoding="UTF-8" standalone="no"?>
<!DOCTYPE svg PUBLIC "-//W3C//DTD SVG 1.1//EN" "http://www.w3.org/Graphics/SVG/1.1/DTD/svg11.dtd">
<svg width="100%" height="100%" viewBox="0 0 142 124" version="1.1" xmlns="http://www.w3.org/2000/svg" xmlns:xlink="http://www.w3.org/1999/xlink" xml:space="preserve" xmlns:serif="http://www.serif.com/" style="fill-rule:evenodd;clip-rule:evenodd;stroke-linecap:square;stroke-linejoin:round;stroke-miterlimit:1.5;">
    <g transform="matrix(1.49933e-17,0.244859,-0.244859,1.49933e-17,241.501,-55.4083)">
        <g transform="matrix(0.998123,1.91518e-32,-1.77753e-32,0.998123,2.14339,0.967873)">
            <path d="M477,415L721.219,556L721.219,838L477,979L232.781,838L232.781,556L477,415Z" style="fill:none;stroke:black;stroke-width:16.39px;"/>
        </g>
        <g transform="matrix(1,0,0,1,-4.21384,1.35886)">
            <g transform="matrix(2.50857e-16,-4.09682,4.09682,2.50857e-16,276.52,987.533)">
                <path d="M39.948,27.293C39.948,27.293 99.179,37.273 102.529,42.262C105.88,47.251 62.952,52.23 59.204,57.229C55.456,62.228 78.437,67.738 80.042,72.254C81.647,76.769 68.832,84.322 68.832,84.322" style="fill:none;stroke:black;stroke-width:2px;stroke-linecap:round;"/>
            </g>
            <g transform="matrix(2.50857e-16,-4.09682,4.09682,2.50857e-16,222.794,987.533)">
                <path d="M39.948,40.407L39.948,29.33" style="fill:none;stroke:black;stroke-width:2px;stroke-linecap:round;"/>
            </g>
            <g transform="matrix(2.50857e-16,-4.09682,4.09682,2.50857e-16,225.894,967.811)">
                <path d="M39.948,40.407L39.948,29.33" style="fill:none;stroke:black;stroke-width:2px;stroke-linecap:round;"/>
            </g>
            <g transform="matrix(2.50857e-16,-4.09682,4.09682,2.50857e-16,257.515,810.035)">
                <path d="M39.948,40.407L39.948,29.33" style="fill:none;stroke:black;stroke-width:2px;stroke-linecap:round;"/>
            </g>
            <g transform="matrix(2.50857e-16,-4.09682,3.04845,1.86663e-16,357.265,810.035)">
                <path d="M39.948,40.407L39.948,29.33" style="fill:none;stroke:black;stroke-width:2.27px;stroke-linecap:round;"/>
            </g>
            <g transform="matrix(-2.50857e-16,4.09682,5.08643,3.11453e-16,359.809,502.441)">
                <path d="M39.948,40.407L39.948,29.33" style="fill:none;stroke:black;stroke-width:1.77px;stroke-linecap:round;"/>
            </g>
            <g transform="matrix(2.50857e-16,-4.09682,4.09682,2.50857e-16,240.549,888.923)">
                <path d="M39.948,40.407L39.948,29.33" style="fill:none;stroke:black;stroke-width:2px;stroke-linecap:round;"/>
            </g>
            <g transform="matrix(2.50857e-16,-4.09682,6.20634,3.80028e-16,249.213,888.923)">
                <path d="M39.948,40.407L39.948,29.33" style="fill:none;stroke:black;stroke-width:1.56px;stroke-linecap:round;"/>
            </g>
            <g transform="matrix(2.50857e-16,-4.09682,4.38995,2.68807e-16,271.427,731.147)">
                <path d="M39.948,40.407L39.948,29.33" style="fill:none;stroke:black;stroke-width:1.93px;stroke-linecap:round;"/>
            </g>
            <g transform="matrix(2.50857e-16,-4.09682,4.09682,2.50857e-16,232.967,928.367)">
                <path d="M39.948,40.407L39.948,29.33" style="fill:none;stroke:black;stroke-width:2px;stroke-linecap:round;"/>
            </g>
            <g transform="matrix(2.50857e-16,-4.09682,4.09682,2.50857e-16,267.308,770.591)">
                <path d="M39.948,40.407L39.948,29.33" style="fill:none;stroke:black;stroke-width:2px;stroke-linecap:round;"/>
            </g>
            <g transform="matrix(2.50857e-16,-4.09682,1.3396,8.20268e-17,416.292,770.591)">
                <path d="M39.948,40.407L39.948,29.33" style="fill:none;stroke:black;stroke-width:2.69px;stroke-linecap:round;"/>
            </g>
            <g transform="matrix(-2.50857e-16,4.09682,2.28665,1.40017e-16,451.718,541.885)">
                <path d="M39.948,40.407L39.948,29.33" style="fill:none;stroke:black;stroke-width:2.47px;stroke-linecap:round;"/>
            </g>
            <g transform="matrix(2.50857e-16,-4.09682,2.28665,1.40017e-16,515.84,849.479)">
                <path d="M39.948,40.407L39.948,29.33" style="fill:none;stroke:black;stroke-width:2.47px;stroke-linecap:round;"/>
            </g>
            <g transform="matrix(2.50857e-16,-4.09682,4.09682,2.50857e-16,248.538,849.479)">
                <path d="M39.948,40.407L39.948,29.33" style="fill:none;stroke:black;stroke-width:2px;stroke-linecap:round;"/>
            </g>
            <g transform="matrix(2.50857e-16,-4.09682,4.59356,2.81274e-16,303.782,849.479)">
                <path d="M39.948,40.407L39.948,29.33" style="fill:none;stroke:black;stroke-width:1.88px;stroke-linecap:round;"/>
            </g>
            <g transform="matrix(2.50857e-16,-4.09682,4.09682,2.50857e-16,229.15,948.089)">
                <path d="M39.948,40.407L39.948,29.33" style="fill:none;stroke:black;stroke-width:2px;stroke-linecap:round;"/>
            </g>
            <g transform="matrix(2.50857e-16,-4.09682,4.09682,2.50857e-16,262.147,790.313)">
                <path d="M39.948,40.407L39.948,29.33" style="fill:none;stroke:black;stroke-width:2px;stroke-linecap:round;"/>
            </g>
            <g transform="matrix(2.50857e-16,-4.09682,2.23178,1.36657e-16,385.43,790.313)">
                <path d="M39.948,40.407L39.948,29.33" style="fill:none;stroke:black;stroke-width:2.48px;stroke-linecap:round;"/>
            </g>
            <g transform="matrix(-2.50857e-16,4.09682,3.50791,2.14797e-16,410.738,522.163)">
                <path d="M39.948,40.407L39.948,29.33" style="fill:none;stroke:black;stroke-width:2.15px;stroke-linecap:round;"/>
            </g>
            <g transform="matrix(2.50857e-16,-4.09682,3.50791,2.14797e-16,473.012,869.201)">
                <path d="M39.948,42.464L39.948,29.33" style="fill:none;stroke:black;stroke-width:2.15px;stroke-linecap:round;"/>
            </g>
            <g transform="matrix(2.50857e-16,-4.09682,4.09682,2.50857e-16,244.616,869.201)">
                <path d="M39.948,40.407L39.948,29.33" style="fill:none;stroke:black;stroke-width:2px;stroke-linecap:round;"/>
            </g>
            <g transform="matrix(2.50857e-16,-4.09682,5.34244,3.27129e-16,278.251,869.201)">
                <path d="M39.948,40.407L39.948,29.33" style="fill:none;stroke:black;stroke-width:1.72px;stroke-linecap:round;"/>
            </g>
            <g transform="matrix(2.50857e-16,-4.09682,4.09682,2.50857e-16,236.604,908.645)">
                <path d="M39.948,40.407L39.948,29.33" style="fill:none;stroke:black;stroke-width:2px;stroke-linecap:round;"/>
            </g>
            <g transform="matrix(2.52635e-16,-4.12586,7.61681,4.66394e-16,204.257,909.805)">
                <path d="M39.948,40.141L39.948,29.33" style="fill:none;stroke:black;stroke-width:1.34px;stroke-linecap:round;"/>
            </g>
            <g transform="matrix(2.50857e-16,-4.09682,4.09682,2.50857e-16,273.695,750.869)">
                <path d="M39.948,40.407L39.948,29.33" style="fill:none;stroke:black;stroke-width:2px;stroke-linecap:round;"/>
            </g>
            <g transform="matrix(2.50857e-16,-4.09682,0.311238,1.90578e-17,452.263,750.869)">
                <path d="M39.948,40.407L39.948,29.33" style="fill:none;stroke:black;stroke-width:2.82px;stroke-linecap:round;"/>
            </g>
            <g transform="matrix(-2.50857e-16,4.09682,0.783837,4.79961e-17,502.182,561.607)">
                <path d="M39.948,40.407L39.948,29.33" style="fill:none;stroke:black;stroke-width:2.78px;stroke-linecap:round;"/>
            </g>
            <g transform="matrix(2.50857e-16,-4.09682,4.09682,2.50857e-16,252.788,829.757)">
                <path d="M39.948,40.407L39.948,29.33" style="fill:none;stroke:black;stroke-width:2px;stroke-linecap:round;"/>
            </g>
            <g transform="matrix(2.50857e-16,-4.09682,3.83115,2.3459e-16,330.009,829.757)">
                <path d="M39.948,40.407L39.948,29.33" style="fill:none;stroke:black;stroke-width:2.07px;stroke-linecap:round;"/>
            </g>
        </g>
    </g>
</svg>
