<?xml version="1.0" encoding="UTF-8" standalone="no"?>
<!DOCTYPE svg PUBLIC "-//W3C//DTD SVG 1.1//EN" "http://www.w3.org/Graphics/SVG/1.1/DTD/svg11.dtd">
<svg width="100%" height="100%" viewBox="0 0 142 124" version="1.1" xmlns="http://www.w3.org/2000/svg" xmlns:xlink="http://www.w3.org/1999/xlink" xml:space="preserve" xmlns:serif="http://www.serif.com/" style="fill-rule:evenodd;clip-rule:evenodd;stroke-linecap:square;stroke-linejoin:round;stroke-miterlimit:1.5;">
    <g transform="matrix(1.49964e-17,0.24491,-0.24491,1.49964e-17,241.536,-55.4328)">
        <g>
            <g transform="matrix(0.998123,1.91518e-32,-1.77753e-32,0.998123,2.14339,0.967873)">
                <path d="M477,415L721.219,556L721.219,838L477,979L232.781,838L232.781,556L477,415Z" style="fill:none;stroke:black;stroke-width:16.39px;"/>
            </g>
            <g transform="matrix(2.08413e-16,-3.40364,3.40364,2.08413e-16,165.657,949.21)">
                <path d="M48.423,49.529C50.07,41.083 57.515,34.701 66.439,34.701C71.805,34.701 76.637,37.009 79.993,40.684C83.113,38.235 87.045,36.774 91.315,36.774C101.445,36.774 109.67,44.998 109.67,55.129C109.67,55.865 109.627,56.59 109.543,57.302C113.587,60.67 116.162,65.743 116.162,71.412C116.162,81.543 107.937,89.767 97.807,89.767C93.009,89.767 88.638,87.923 85.367,84.904C82.002,89.13 76.815,91.84 71,91.84C66.116,91.84 61.675,89.928 58.384,86.813C56.277,87.599 53.998,88.028 51.619,88.028C40.922,88.028 32.238,79.344 32.238,68.647C32.238,59.039 39.244,51.055 48.423,49.529Z" style="fill:none;stroke:black;stroke-width:3px;stroke-linecap:round;"/>
            </g>
            <g>
                <g transform="matrix(1.93458e-17,-0.315942,0.315942,1.93458e-17,458.131,851.669)">
                    <g transform="matrix(1,0,0,1,-40.6641,-0.664057)">
                        <path d="M954.664,168L954.664,308.664L1076.48,238.332L954.664,308.664L1076.48,378.996L954.664,308.664L954.664,449.328L954.664,308.664L832.845,378.996L954.664,308.664L832.845,238.332L954.664,308.664L954.664,168Z" style="fill:rgb(153,153,153);fill-opacity:0;stroke:black;stroke-width:15.62px;stroke-linecap:round;stroke-miterlimit:4;"/>
                    </g>
                    <g transform="matrix(1,0,0,1,0,40)">
                        <path d="M914,167.336C922.763,158.573 931.526,149.81 940.288,141.048" style="fill:none;stroke:black;stroke-width:15.62px;stroke-linecap:round;stroke-miterlimit:4;"/>
                    </g>
                    <g transform="matrix(0.499492,0.866318,-0.866318,0.499492,688.249,-616.604)">
                        <path d="M914,167.336C922.763,158.573 931.526,149.81 940.288,141.048" style="fill:none;stroke:black;stroke-width:15.62px;stroke-linecap:round;stroke-miterlimit:4;"/>
                    </g>
                    <g transform="matrix(1,0,0,1,0,40)">
                        <path d="M914,167.336C905.171,158.507 896.341,149.677 887.512,140.848" style="fill:none;stroke:black;stroke-width:15.62px;stroke-linecap:round;stroke-miterlimit:4;"/>
                    </g>
                    <g transform="matrix(0.499492,0.866318,-0.866318,0.499492,688.249,-616.604)">
                        <path d="M914,167.336C905.171,158.507 896.341,149.677 887.512,140.848" style="fill:none;stroke:black;stroke-width:15.62px;stroke-linecap:round;stroke-miterlimit:4;"/>
                    </g>
                    <g transform="matrix(-1,-0.00029897,0.00029897,-1,1827.92,576.273)">
                        <path d="M914,167.336C922.763,158.573 931.526,149.81 940.288,141.048" style="fill:none;stroke:black;stroke-width:15.62px;stroke-linecap:round;stroke-miterlimit:4;"/>
                    </g>
                    <g transform="matrix(-0.499233,-0.866468,0.866468,-0.499233,1139.47,1232.67)">
                        <path d="M914,167.336C922.763,158.573 931.526,149.81 940.288,141.048" style="fill:none;stroke:black;stroke-width:15.62px;stroke-linecap:round;stroke-miterlimit:4;"/>
                    </g>
                    <g transform="matrix(-1,-0.00029897,0.00029897,-1,1827.92,576.273)">
                        <path d="M914,167.336C905.171,158.507 896.341,149.677 887.512,140.848" style="fill:none;stroke:black;stroke-width:15.62px;stroke-linecap:round;stroke-miterlimit:4;"/>
                    </g>
                    <g transform="matrix(-0.499233,-0.866468,0.866468,-0.499233,1139.47,1232.67)">
                        <path d="M914,167.336C905.171,158.507 896.341,149.677 887.512,140.848" style="fill:none;stroke:black;stroke-width:15.62px;stroke-linecap:round;stroke-miterlimit:4;"/>
                    </g>
                    <g transform="matrix(0.499628,-0.86624,0.86624,0.499628,225.188,965.843)">
                        <path d="M914,167.336C922.763,158.573 931.526,149.81 940.288,141.048" style="fill:none;stroke:black;stroke-width:15.62px;stroke-linecap:round;stroke-miterlimit:4;"/>
                    </g>
                    <g transform="matrix(0.499628,-0.86624,0.86624,0.499628,225.188,965.843)">
                        <path d="M914,167.336C905.171,158.507 896.341,149.677 887.512,140.848" style="fill:none;stroke:black;stroke-width:15.62px;stroke-linecap:round;stroke-miterlimit:4;"/>
                    </g>
                    <g transform="matrix(-0.499887,0.866091,-0.866091,-0.499887,1603.01,-349.637)">
                        <path d="M914,167.336C922.763,158.573 931.526,149.81 940.288,141.048" style="fill:none;stroke:black;stroke-width:15.62px;stroke-linecap:round;stroke-miterlimit:4;"/>
                    </g>
                    <g transform="matrix(-0.499887,0.866091,-0.866091,-0.499887,1603.01,-349.637)">
                        <path d="M914,167.336C905.171,158.507 896.341,149.677 887.512,140.848" style="fill:none;stroke:black;stroke-width:15.62px;stroke-linecap:round;stroke-miterlimit:4;"/>
                    </g>
                </g>
                <g transform="matrix(1.93458e-17,-0.315942,0.315942,1.93458e-17,547.014,913.136)">
                    <g transform="matrix(1,0,0,1,-40.6641,-0.664057)">
                        <path d="M954.664,168L954.664,308.664L1076.48,238.332L954.664,308.664L1076.48,378.996L954.664,308.664L954.664,449.328L954.664,308.664L832.845,378.996L954.664,308.664L832.845,238.332L954.664,308.664L954.664,168Z" style="fill:rgb(153,153,153);fill-opacity:0;stroke:black;stroke-width:15.62px;stroke-linecap:round;stroke-miterlimit:4;"/>
                    </g>
                    <g transform="matrix(1,0,0,1,0,40)">
                        <path d="M914,167.336C922.763,158.573 931.526,149.81 940.288,141.048" style="fill:none;stroke:black;stroke-width:15.62px;stroke-linecap:round;stroke-miterlimit:4;"/>
                    </g>
                    <g transform="matrix(0.499492,0.866318,-0.866318,0.499492,688.249,-616.604)">
                        <path d="M914,167.336C922.763,158.573 931.526,149.81 940.288,141.048" style="fill:none;stroke:black;stroke-width:15.62px;stroke-linecap:round;stroke-miterlimit:4;"/>
                    </g>
                    <g transform="matrix(1,0,0,1,0,40)">
                        <path d="M914,167.336C905.171,158.507 896.341,149.677 887.512,140.848" style="fill:none;stroke:black;stroke-width:15.62px;stroke-linecap:round;stroke-miterlimit:4;"/>
                    </g>
                    <g transform="matrix(0.499492,0.866318,-0.866318,0.499492,688.249,-616.604)">
                        <path d="M914,167.336C905.171,158.507 896.341,149.677 887.512,140.848" style="fill:none;stroke:black;stroke-width:15.62px;stroke-linecap:round;stroke-miterlimit:4;"/>
                    </g>
                    <g transform="matrix(-1,-0.00029897,0.00029897,-1,1827.92,576.273)">
                        <path d="M914,167.336C922.763,158.573 931.526,149.81 940.288,141.048" style="fill:none;stroke:black;stroke-width:15.62px;stroke-linecap:round;stroke-miterlimit:4;"/>
                    </g>
                    <g transform="matrix(-0.499233,-0.866468,0.866468,-0.499233,1139.47,1232.67)">
                        <path d="M914,167.336C922.763,158.573 931.526,149.81 940.288,141.048" style="fill:none;stroke:black;stroke-width:15.62px;stroke-linecap:round;stroke-miterlimit:4;"/>
                    </g>
                    <g transform="matrix(-1,-0.00029897,0.00029897,-1,1827.92,576.273)">
                        <path d="M914,167.336C905.171,158.507 896.341,149.677 887.512,140.848" style="fill:none;stroke:black;stroke-width:15.62px;stroke-linecap:round;stroke-miterlimit:4;"/>
                    </g>
                    <g transform="matrix(-0.499233,-0.866468,0.866468,-0.499233,1139.47,1232.67)">
                        <path d="M914,167.336C905.171,158.507 896.341,149.677 887.512,140.848" style="fill:none;stroke:black;stroke-width:15.62px;stroke-linecap:round;stroke-miterlimit:4;"/>
                    </g>
                    <g transform="matrix(0.499628,-0.86624,0.86624,0.499628,225.188,965.843)">
                        <path d="M914,167.336C922.763,158.573 931.526,149.81 940.288,141.048" style="fill:none;stroke:black;stroke-width:15.62px;stroke-linecap:round;stroke-miterlimit:4;"/>
                    </g>
                    <g transform="matrix(0.499628,-0.86624,0.86624,0.499628,225.188,965.843)">
                        <path d="M914,167.336C905.171,158.507 896.341,149.677 887.512,140.848" style="fill:none;stroke:black;stroke-width:15.62px;stroke-linecap:round;stroke-miterlimit:4;"/>
                    </g>
                    <g transform="matrix(-0.499887,0.866091,-0.866091,-0.499887,1603.01,-349.637)">
                        <path d="M914,167.336C922.763,158.573 931.526,149.81 940.288,141.048" style="fill:none;stroke:black;stroke-width:15.62px;stroke-linecap:round;stroke-miterlimit:4;"/>
                    </g>
                    <g transform="matrix(-0.499887,0.866091,-0.866091,-0.499887,1603.01,-349.637)">
                        <path d="M914,167.336C905.171,158.507 896.341,149.677 887.512,140.848" style="fill:none;stroke:black;stroke-width:15.62px;stroke-linecap:round;stroke-miterlimit:4;"/>
                    </g>
                </g>
                <g transform="matrix(1.93458e-17,-0.315942,0.315942,1.93458e-17,432.874,958.881)">
                    <g transform="matrix(1,0,0,1,-40.6641,-0.664057)">
                        <path d="M954.664,168L954.664,308.664L1076.48,238.332L954.664,308.664L1076.48,378.996L954.664,308.664L954.664,449.328L954.664,308.664L832.845,378.996L954.664,308.664L832.845,238.332L954.664,308.664L954.664,168Z" style="fill:rgb(153,153,153);fill-opacity:0;stroke:black;stroke-width:15.62px;stroke-linecap:round;stroke-miterlimit:4;"/>
                    </g>
                    <g transform="matrix(1,0,0,1,0,40)">
                        <path d="M914,167.336C922.763,158.573 931.526,149.81 940.288,141.048" style="fill:none;stroke:black;stroke-width:15.62px;stroke-linecap:round;stroke-miterlimit:4;"/>
                    </g>
                    <g transform="matrix(0.499492,0.866318,-0.866318,0.499492,688.249,-616.604)">
                        <path d="M914,167.336C922.763,158.573 931.526,149.81 940.288,141.048" style="fill:none;stroke:black;stroke-width:15.62px;stroke-linecap:round;stroke-miterlimit:4;"/>
                    </g>
                    <g transform="matrix(1,0,0,1,0,40)">
                        <path d="M914,167.336C905.171,158.507 896.341,149.677 887.512,140.848" style="fill:none;stroke:black;stroke-width:15.62px;stroke-linecap:round;stroke-miterlimit:4;"/>
                    </g>
                    <g transform="matrix(0.499492,0.866318,-0.866318,0.499492,688.249,-616.604)">
                        <path d="M914,167.336C905.171,158.507 896.341,149.677 887.512,140.848" style="fill:none;stroke:black;stroke-width:15.62px;stroke-linecap:round;stroke-miterlimit:4;"/>
                    </g>
                    <g transform="matrix(-1,-0.00029897,0.00029897,-1,1827.92,576.273)">
                        <path d="M914,167.336C922.763,158.573 931.526,149.81 940.288,141.048" style="fill:none;stroke:black;stroke-width:15.62px;stroke-linecap:round;stroke-miterlimit:4;"/>
                    </g>
                    <g transform="matrix(-0.499233,-0.866468,0.866468,-0.499233,1139.47,1232.67)">
                        <path d="M914,167.336C922.763,158.573 931.526,149.81 940.288,141.048" style="fill:none;stroke:black;stroke-width:15.62px;stroke-linecap:round;stroke-miterlimit:4;"/>
                    </g>
                    <g transform="matrix(-1,-0.00029897,0.00029897,-1,1827.92,576.273)">
                        <path d="M914,167.336C905.171,158.507 896.341,149.677 887.512,140.848" style="fill:none;stroke:black;stroke-width:15.62px;stroke-linecap:round;stroke-miterlimit:4;"/>
                    </g>
                    <g transform="matrix(-0.499233,-0.866468,0.866468,-0.499233,1139.47,1232.67)">
                        <path d="M914,167.336C905.171,158.507 896.341,149.677 887.512,140.848" style="fill:none;stroke:black;stroke-width:15.62px;stroke-linecap:round;stroke-miterlimit:4;"/>
                    </g>
                    <g transform="matrix(0.499628,-0.86624,0.86624,0.499628,225.188,965.843)">
                        <path d="M914,167.336C922.763,158.573 931.526,149.81 940.288,141.048" style="fill:none;stroke:black;stroke-width:15.62px;stroke-linecap:round;stroke-miterlimit:4;"/>
                    </g>
                    <g transform="matrix(0.499628,-0.86624,0.86624,0.499628,225.188,965.843)">
                        <path d="M914,167.336C905.171,158.507 896.341,149.677 887.512,140.848" style="fill:none;stroke:black;stroke-width:15.62px;stroke-linecap:round;stroke-miterlimit:4;"/>
                    </g>
                    <g transform="matrix(-0.499887,0.866091,-0.866091,-0.499887,1603.01,-349.637)">
                        <path d="M914,167.336C922.763,158.573 931.526,149.81 940.288,141.048" style="fill:none;stroke:black;stroke-width:15.62px;stroke-linecap:round;stroke-miterlimit:4;"/>
                    </g>
                    <g transform="matrix(-0.499887,0.866091,-0.866091,-0.499887,1603.01,-349.637)">
                        <path d="M914,167.336C905.171,158.507 896.341,149.677 887.512,140.848" style="fill:none;stroke:black;stroke-width:15.62px;stroke-linecap:round;stroke-miterlimit:4;"/>
                    </g>
                </g>
            </g>
        </g>
        <g transform="matrix(1,0,0,1,16.7343,21.5223)">
            <g transform="matrix(2.50857e-16,-4.09682,4.09682,2.50857e-16,224.245,987.533)">
                <path d="M30.345,78.387C30.345,78.387 49.041,78.399 53.351,78.387C62.958,78.362 62.958,67.632 53.351,67.632" style="fill:none;stroke:black;stroke-width:2px;stroke-linecap:round;"/>
            </g>
            <g transform="matrix(2.50857e-16,-4.09682,-4.09682,-2.50857e-16,904.307,955.26)">
                <path d="M30.345,78.387C30.345,78.387 49.041,78.399 53.351,78.387C62.958,78.362 62.958,67.632 53.351,67.632" style="fill:none;stroke:black;stroke-width:2px;stroke-linecap:round;"/>
            </g>
            <g transform="matrix(2.50857e-16,-4.09682,-4.09682,-2.50857e-16,885.435,971.397)">
                <path d="M30.345,78.387C30.345,78.387 54.419,78.399 58.728,78.387" style="fill:none;stroke:black;stroke-width:2px;stroke-linecap:round;"/>
            </g>
        </g>
    </g>
</svg>
