<?xml version="1.0" encoding="UTF-8" standalone="no"?>
<!DOCTYPE svg PUBLIC "-//W3C//DTD SVG 1.1//EN" "http://www.w3.org/Graphics/SVG/1.1/DTD/svg11.dtd">
<svg width="100%" height="100%" viewBox="0 0 142 124" version="1.1" xmlns="http://www.w3.org/2000/svg" xmlns:xlink="http://www.w3.org/1999/xlink" xml:space="preserve" xmlns:serif="http://www.serif.com/" style="fill-rule:evenodd;clip-rule:evenodd;stroke-linecap:square;stroke-linejoin:round;stroke-miterlimit:1.5;">
    <g transform="matrix(1.49964e-17,0.24491,-0.24491,1.49964e-17,241.536,-55.4328)">
        <g transform="matrix(0.998123,1.91518e-32,-1.77753e-32,0.998123,2.14339,0.967873)">
            <path d="M477,415L721.219,556L721.219,838L477,979L232.781,838L232.781,556L477,415Z" style="fill:none;stroke:black;stroke-width:16.39px;"/>
        </g>
        <g transform="matrix(1,0,0,1,2.37585,5.29623)">
            <g transform="matrix(1.55519,-3.16399e-32,3.16399e-32,1.55519,-374.315,-483.33)">
                <g transform="matrix(2.50857e-16,-4.09682,4.09682,2.50857e-16,224.245,987.533)">
                    <path d="M30.345,78.387C30.345,78.387 49.041,78.399 53.351,78.387C62.958,78.362 62.958,67.632 53.351,67.632" style="fill:none;stroke:black;stroke-width:1.29px;stroke-linecap:round;"/>
                </g>
                <g transform="matrix(2.50857e-16,-4.09682,-4.09682,-2.50857e-16,904.307,955.26)">
                    <path d="M30.345,78.387C30.345,78.387 49.041,78.399 53.351,78.387C62.958,78.362 62.958,67.632 53.351,67.632" style="fill:none;stroke:black;stroke-width:1.29px;stroke-linecap:round;"/>
                </g>
                <g transform="matrix(2.50857e-16,-4.09682,-4.09682,-2.50857e-16,885.435,971.397)">
                    <path d="M30.345,78.387C30.345,78.387 54.419,78.399 58.728,78.387" style="fill:none;stroke:black;stroke-width:1.29px;stroke-linecap:round;"/>
                </g>
            </g>
            <g transform="matrix(1,0,0,1,15.8769,-12.6131)">
                <g transform="matrix(1.23782e-17,-0.202152,0.202152,1.23782e-17,414.346,784.352)">
                    <g transform="matrix(1,0,0,1,-40.6641,-0.664057)">
                        <path d="M954.664,168L954.664,308.664L1076.48,238.332L954.664,308.664L1076.48,378.996L954.664,308.664L954.664,449.328L954.664,308.664L832.845,378.996L954.664,308.664L832.845,238.332L954.664,308.664L954.664,168Z" style="fill:rgb(153,153,153);fill-opacity:0;stroke:black;stroke-width:20.27px;stroke-linecap:round;stroke-miterlimit:4;"/>
                    </g>
                    <g transform="matrix(1,0,0,1,0,40)">
                        <path d="M914,167.336C922.763,158.573 931.526,149.81 940.288,141.048" style="fill:none;stroke:black;stroke-width:20.27px;stroke-linecap:round;stroke-miterlimit:4;"/>
                    </g>
                    <g transform="matrix(0.499492,0.866318,-0.866318,0.499492,688.249,-616.604)">
                        <path d="M914,167.336C922.763,158.573 931.526,149.81 940.288,141.048" style="fill:none;stroke:black;stroke-width:20.27px;stroke-linecap:round;stroke-miterlimit:4;"/>
                    </g>
                    <g transform="matrix(1,0,0,1,0,40)">
                        <path d="M914,167.336C905.171,158.507 896.341,149.677 887.512,140.848" style="fill:none;stroke:black;stroke-width:20.27px;stroke-linecap:round;stroke-miterlimit:4;"/>
                    </g>
                    <g transform="matrix(0.499492,0.866318,-0.866318,0.499492,688.249,-616.604)">
                        <path d="M914,167.336C905.171,158.507 896.341,149.677 887.512,140.848" style="fill:none;stroke:black;stroke-width:20.27px;stroke-linecap:round;stroke-miterlimit:4;"/>
                    </g>
                    <g transform="matrix(-1,-0.00029897,0.00029897,-1,1827.92,576.273)">
                        <path d="M914,167.336C922.763,158.573 931.526,149.81 940.288,141.048" style="fill:none;stroke:black;stroke-width:20.27px;stroke-linecap:round;stroke-miterlimit:4;"/>
                    </g>
                    <g transform="matrix(-0.499233,-0.866468,0.866468,-0.499233,1139.47,1232.67)">
                        <path d="M914,167.336C922.763,158.573 931.526,149.81 940.288,141.048" style="fill:none;stroke:black;stroke-width:20.27px;stroke-linecap:round;stroke-miterlimit:4;"/>
                    </g>
                    <g transform="matrix(-1,-0.00029897,0.00029897,-1,1827.92,576.273)">
                        <path d="M914,167.336C905.171,158.507 896.341,149.677 887.512,140.848" style="fill:none;stroke:black;stroke-width:20.27px;stroke-linecap:round;stroke-miterlimit:4;"/>
                    </g>
                    <g transform="matrix(-0.499233,-0.866468,0.866468,-0.499233,1139.47,1232.67)">
                        <path d="M914,167.336C905.171,158.507 896.341,149.677 887.512,140.848" style="fill:none;stroke:black;stroke-width:20.27px;stroke-linecap:round;stroke-miterlimit:4;"/>
                    </g>
                    <g transform="matrix(0.499628,-0.86624,0.86624,0.499628,225.188,965.843)">
                        <path d="M914,167.336C922.763,158.573 931.526,149.81 940.288,141.048" style="fill:none;stroke:black;stroke-width:20.27px;stroke-linecap:round;stroke-miterlimit:4;"/>
                    </g>
                    <g transform="matrix(0.499628,-0.86624,0.86624,0.499628,225.188,965.843)">
                        <path d="M914,167.336C905.171,158.507 896.341,149.677 887.512,140.848" style="fill:none;stroke:black;stroke-width:20.27px;stroke-linecap:round;stroke-miterlimit:4;"/>
                    </g>
                    <g transform="matrix(-0.499887,0.866091,-0.866091,-0.499887,1603.01,-349.637)">
                        <path d="M914,167.336C922.763,158.573 931.526,149.81 940.288,141.048" style="fill:none;stroke:black;stroke-width:20.27px;stroke-linecap:round;stroke-miterlimit:4;"/>
                    </g>
                    <g transform="matrix(-0.499887,0.866091,-0.866091,-0.499887,1603.01,-349.637)">
                        <path d="M914,167.336C905.171,158.507 896.341,149.677 887.512,140.848" style="fill:none;stroke:black;stroke-width:20.27px;stroke-linecap:round;stroke-miterlimit:4;"/>
                    </g>
                </g>
                <g transform="matrix(2.50857e-16,-4.09682,4.09682,2.50857e-16,260.583,976.867)">
                    <path d="M87.11,18.876C87.127,16.142 89.352,13.927 92.091,13.927C94.841,13.927 97.073,16.159 97.073,18.909L97.073,43.849C100.071,45.577 102.091,48.814 102.091,52.52C102.091,58.039 97.61,62.52 92.091,62.52C86.572,62.52 82.091,58.039 82.091,52.52C82.091,48.814 84.111,45.577 87.11,43.849L87.11,18.909L87.11,18.876Z" style="fill:none;stroke:black;stroke-width:2px;stroke-linecap:round;"/>
                </g>
            </g>
        </g>
    </g>
</svg>
