<?xml version="1.0" encoding="UTF-8" standalone="no"?>
<!DOCTYPE svg PUBLIC "-//W3C//DTD SVG 1.1//EN" "http://www.w3.org/Graphics/SVG/1.1/DTD/svg11.dtd">
<svg width="100%" height="100%" viewBox="0 0 142 124" version="1.1" xmlns="http://www.w3.org/2000/svg" xmlns:xlink="http://www.w3.org/1999/xlink" xml:space="preserve" xmlns:serif="http://www.serif.com/" style="fill-rule:evenodd;clip-rule:evenodd;stroke-linecap:square;stroke-linejoin:round;stroke-miterlimit:1.5;">
    <g transform="matrix(1.49944e-17,0.244878,-0.244878,1.49944e-17,241.513,-55.4172)">
        <g transform="matrix(0.998123,1.91518e-32,-1.77753e-32,0.998123,2.14339,0.967873)">
            <path d="M477,415L721.219,556L721.219,838L477,979L232.781,838L232.781,556L477,415Z" style="fill:none;stroke:black;stroke-width:16.39px;"/>
        </g>
        <g transform="matrix(6.10363e-17,-0.9968,0.9968,6.10363e-17,171.234,1607.73)">
            <g transform="matrix(1,0,0,1,-40.6641,-0.664057)">
                <path d="M954.664,168L954.664,308.664L1076.48,238.332L954.664,308.664L1076.48,378.996L954.664,308.664L954.664,449.328L954.664,308.664L832.845,378.996L954.664,308.664L832.845,238.332L954.664,308.664L954.664,168Z" style="fill:rgb(153,153,153);fill-opacity:0;stroke:black;stroke-width:15.62px;stroke-linecap:round;stroke-miterlimit:4;"/>
            </g>
            <g transform="matrix(1,0,0,1,0,40)">
                <path d="M914,167.336C922.763,158.573 931.526,149.81 940.288,141.048" style="fill:none;stroke:black;stroke-width:15.62px;stroke-linecap:round;stroke-miterlimit:4;"/>
            </g>
            <g transform="matrix(0.499492,0.866318,-0.866318,0.499492,688.249,-616.604)">
                <path d="M914,167.336C922.763,158.573 931.526,149.81 940.288,141.048" style="fill:none;stroke:black;stroke-width:15.62px;stroke-linecap:round;stroke-miterlimit:4;"/>
            </g>
            <g transform="matrix(1,0,0,1,0,40)">
                <path d="M914,167.336C905.171,158.507 896.341,149.677 887.512,140.848" style="fill:none;stroke:black;stroke-width:15.62px;stroke-linecap:round;stroke-miterlimit:4;"/>
            </g>
            <g transform="matrix(0.499492,0.866318,-0.866318,0.499492,688.249,-616.604)">
                <path d="M914,167.336C905.171,158.507 896.341,149.677 887.512,140.848" style="fill:none;stroke:black;stroke-width:15.62px;stroke-linecap:round;stroke-miterlimit:4;"/>
            </g>
            <g transform="matrix(-1,-0.00029897,0.00029897,-1,1827.92,576.273)">
                <path d="M914,167.336C922.763,158.573 931.526,149.81 940.288,141.048" style="fill:none;stroke:black;stroke-width:15.62px;stroke-linecap:round;stroke-miterlimit:4;"/>
            </g>
            <g transform="matrix(-0.499233,-0.866468,0.866468,-0.499233,1139.47,1232.67)">
                <path d="M914,167.336C922.763,158.573 931.526,149.81 940.288,141.048" style="fill:none;stroke:black;stroke-width:15.62px;stroke-linecap:round;stroke-miterlimit:4;"/>
            </g>
            <g transform="matrix(-1,-0.00029897,0.00029897,-1,1827.92,576.273)">
                <path d="M914,167.336C905.171,158.507 896.341,149.677 887.512,140.848" style="fill:none;stroke:black;stroke-width:15.62px;stroke-linecap:round;stroke-miterlimit:4;"/>
            </g>
            <g transform="matrix(-0.499233,-0.866468,0.866468,-0.499233,1139.47,1232.67)">
                <path d="M914,167.336C905.171,158.507 896.341,149.677 887.512,140.848" style="fill:none;stroke:black;stroke-width:15.62px;stroke-linecap:round;stroke-miterlimit:4;"/>
            </g>
            <g transform="matrix(0.499628,-0.86624,0.86624,0.499628,225.188,965.843)">
                <path d="M914,167.336C922.763,158.573 931.526,149.81 940.288,141.048" style="fill:none;stroke:black;stroke-width:15.62px;stroke-linecap:round;stroke-miterlimit:4;"/>
            </g>
            <g transform="matrix(0.499628,-0.86624,0.86624,0.499628,225.188,965.843)">
                <path d="M914,167.336C905.171,158.507 896.341,149.677 887.512,140.848" style="fill:none;stroke:black;stroke-width:15.62px;stroke-linecap:round;stroke-miterlimit:4;"/>
            </g>
            <g transform="matrix(-0.499887,0.866091,-0.866091,-0.499887,1603.01,-349.637)">
                <path d="M914,167.336C922.763,158.573 931.526,149.81 940.288,141.048" style="fill:none;stroke:black;stroke-width:15.62px;stroke-linecap:round;stroke-miterlimit:4;"/>
            </g>
            <g transform="matrix(-0.499887,0.866091,-0.866091,-0.499887,1603.01,-349.637)">
                <path d="M914,167.336C905.171,158.507 896.341,149.677 887.512,140.848" style="fill:none;stroke:black;stroke-width:15.62px;stroke-linecap:round;stroke-miterlimit:4;"/>
            </g>
        </g>
    </g>
</svg>
