<?xml version="1.0" encoding="UTF-8" standalone="no"?>
<svg
   width="100%"
   height="100%"
   viewBox="0 0 142 124"
   version="1.1"
   xml:space="preserve"
   style="fill-rule:evenodd;clip-rule:evenodd;stroke-linecap:square;stroke-linejoin:round;stroke-miterlimit:1.5;"
   id="svg33"
   sodipodi:docname="aurorahex.svg"
   inkscape:version="1.4.1 (93de688d07, 2025-03-30)"
   xmlns:inkscape="http://www.inkscape.org/namespaces/inkscape"
   xmlns:sodipodi="http://sodipodi.sourceforge.net/DTD/sodipodi-0.dtd"
   xmlns="http://www.w3.org/2000/svg"
   xmlns:svg="http://www.w3.org/2000/svg"><defs
   id="defs33" /><sodipodi:namedview
   id="namedview33"
   pagecolor="#ffffff"
   bordercolor="#000000"
   borderopacity="0.25"
   inkscape:showpageshadow="2"
   inkscape:pageopacity="0.0"
   inkscape:pagecheckerboard="0"
   inkscape:deskcolor="#d1d1d1"
   inkscape:zoom="7.0967742"
   inkscape:cx="71.018182"
   inkscape:cy="62"
   inkscape:window-width="2048"
   inkscape:window-height="1088"
   inkscape:window-x="0"
   inkscape:window-y="0"
   inkscape:window-maximized="1"
   inkscape:current-layer="g33" />
    <g
   transform="matrix(1.49933e-17,0.244859,-0.244859,1.49933e-17,241.501,-55.4083)"
   id="g33">
        <g
   transform="matrix(0.998123,1.91518e-32,-1.77753e-32,0.998123,2.14339,0.967873)"
   id="g1"
   style="fill:#ffffff;fill-opacity:1">
            <path
   d="M477,415L721.219,556L721.219,838L477,979L232.781,838L232.781,556L477,415Z"
   style="fill:#ffffff;stroke:black;stroke-width:16.39px;fill-opacity:1"
   id="path1" />
        </g>
        <g
   transform="matrix(1,0,0,1,-4.21384,1.35886)"
   id="g32">
            <g
   transform="matrix(2.50857e-16,-4.09682,4.09682,2.50857e-16,276.52,987.533)"
   id="g2">
                <path
   d="M39.948,27.293C39.948,27.293 99.179,37.273 102.529,42.262C105.88,47.251 62.952,52.23 59.204,57.229C55.456,62.228 78.437,67.738 80.042,72.254C81.647,76.769 68.832,84.322 68.832,84.322"
   style="fill:none;stroke:black;stroke-width:2px;stroke-linecap:round;"
   id="path2" />
            </g>
            <g
   transform="matrix(2.50857e-16,-4.09682,4.09682,2.50857e-16,222.794,987.533)"
   id="g3">
                <path
   d="M39.948,40.407L39.948,29.33"
   style="fill:none;stroke:black;stroke-width:2px;stroke-linecap:round;"
   id="path3" />
            </g>
            <g
   transform="matrix(2.50857e-16,-4.09682,4.09682,2.50857e-16,225.894,967.811)"
   id="g4">
                <path
   d="M39.948,40.407L39.948,29.33"
   style="fill:none;stroke:black;stroke-width:2px;stroke-linecap:round;"
   id="path4" />
            </g>
            <g
   transform="matrix(2.50857e-16,-4.09682,4.09682,2.50857e-16,257.515,810.035)"
   id="g5">
                <path
   d="M39.948,40.407L39.948,29.33"
   style="fill:none;stroke:black;stroke-width:2px;stroke-linecap:round;"
   id="path5" />
            </g>
            <g
   transform="matrix(2.50857e-16,-4.09682,3.04845,1.86663e-16,357.265,810.035)"
   id="g6">
                <path
   d="M39.948,40.407L39.948,29.33"
   style="fill:none;stroke:black;stroke-width:2.27px;stroke-linecap:round;"
   id="path6" />
            </g>
            <g
   transform="matrix(-2.50857e-16,4.09682,5.08643,3.11453e-16,359.809,502.441)"
   id="g7">
                <path
   d="M39.948,40.407L39.948,29.33"
   style="fill:none;stroke:black;stroke-width:1.77px;stroke-linecap:round;"
   id="path7" />
            </g>
            <g
   transform="matrix(2.50857e-16,-4.09682,4.09682,2.50857e-16,240.549,888.923)"
   id="g8">
                <path
   d="M39.948,40.407L39.948,29.33"
   style="fill:none;stroke:black;stroke-width:2px;stroke-linecap:round;"
   id="path8" />
            </g>
            <g
   transform="matrix(2.50857e-16,-4.09682,6.20634,3.80028e-16,249.213,888.923)"
   id="g9">
                <path
   d="M39.948,40.407L39.948,29.33"
   style="fill:none;stroke:black;stroke-width:1.56px;stroke-linecap:round;"
   id="path9" />
            </g>
            <g
   transform="matrix(2.50857e-16,-4.09682,4.38995,2.68807e-16,271.427,731.147)"
   id="g10">
                <path
   d="M39.948,40.407L39.948,29.33"
   style="fill:none;stroke:black;stroke-width:1.93px;stroke-linecap:round;"
   id="path10" />
            </g>
            <g
   transform="matrix(2.50857e-16,-4.09682,4.09682,2.50857e-16,232.967,928.367)"
   id="g11">
                <path
   d="M39.948,40.407L39.948,29.33"
   style="fill:none;stroke:black;stroke-width:2px;stroke-linecap:round;"
   id="path11" />
            </g>
            <g
   transform="matrix(2.50857e-16,-4.09682,4.09682,2.50857e-16,267.308,770.591)"
   id="g12">
                <path
   d="M39.948,40.407L39.948,29.33"
   style="fill:none;stroke:black;stroke-width:2px;stroke-linecap:round;"
   id="path12" />
            </g>
            <g
   transform="matrix(2.50857e-16,-4.09682,1.3396,8.20268e-17,416.292,770.591)"
   id="g13">
                <path
   d="M39.948,40.407L39.948,29.33"
   style="fill:none;stroke:black;stroke-width:2.69px;stroke-linecap:round;"
   id="path13" />
            </g>
            <g
   transform="matrix(-2.50857e-16,4.09682,2.28665,1.40017e-16,451.718,541.885)"
   id="g14">
                <path
   d="M39.948,40.407L39.948,29.33"
   style="fill:none;stroke:black;stroke-width:2.47px;stroke-linecap:round;"
   id="path14" />
            </g>
            <g
   transform="matrix(2.50857e-16,-4.09682,2.28665,1.40017e-16,515.84,849.479)"
   id="g15">
                <path
   d="M39.948,40.407L39.948,29.33"
   style="fill:none;stroke:black;stroke-width:2.47px;stroke-linecap:round;"
   id="path15" />
            </g>
            <g
   transform="matrix(2.50857e-16,-4.09682,4.09682,2.50857e-16,248.538,849.479)"
   id="g16">
                <path
   d="M39.948,40.407L39.948,29.33"
   style="fill:none;stroke:black;stroke-width:2px;stroke-linecap:round;"
   id="path16" />
            </g>
            <g
   transform="matrix(2.50857e-16,-4.09682,4.59356,2.81274e-16,303.782,849.479)"
   id="g17">
                <path
   d="M39.948,40.407L39.948,29.33"
   style="fill:none;stroke:black;stroke-width:1.88px;stroke-linecap:round;"
   id="path17" />
            </g>
            <g
   transform="matrix(2.50857e-16,-4.09682,4.09682,2.50857e-16,229.15,948.089)"
   id="g18">
                <path
   d="M39.948,40.407L39.948,29.33"
   style="fill:none;stroke:black;stroke-width:2px;stroke-linecap:round;"
   id="path18" />
            </g>
            <g
   transform="matrix(2.50857e-16,-4.09682,4.09682,2.50857e-16,262.147,790.313)"
   id="g19">
                <path
   d="M39.948,40.407L39.948,29.33"
   style="fill:none;stroke:black;stroke-width:2px;stroke-linecap:round;"
   id="path19" />
            </g>
            <g
   transform="matrix(2.50857e-16,-4.09682,2.23178,1.36657e-16,385.43,790.313)"
   id="g20">
                <path
   d="M39.948,40.407L39.948,29.33"
   style="fill:none;stroke:black;stroke-width:2.48px;stroke-linecap:round;"
   id="path20" />
            </g>
            <g
   transform="matrix(-2.50857e-16,4.09682,3.50791,2.14797e-16,410.738,522.163)"
   id="g21">
                <path
   d="M39.948,40.407L39.948,29.33"
   style="fill:none;stroke:black;stroke-width:2.15px;stroke-linecap:round;"
   id="path21" />
            </g>
            <g
   transform="matrix(2.50857e-16,-4.09682,3.50791,2.14797e-16,473.012,869.201)"
   id="g22">
                <path
   d="M39.948,42.464L39.948,29.33"
   style="fill:none;stroke:black;stroke-width:2.15px;stroke-linecap:round;"
   id="path22" />
            </g>
            <g
   transform="matrix(2.50857e-16,-4.09682,4.09682,2.50857e-16,244.616,869.201)"
   id="g23">
                <path
   d="M39.948,40.407L39.948,29.33"
   style="fill:none;stroke:black;stroke-width:2px;stroke-linecap:round;"
   id="path23" />
            </g>
            <g
   transform="matrix(2.50857e-16,-4.09682,5.34244,3.27129e-16,278.251,869.201)"
   id="g24">
                <path
   d="M39.948,40.407L39.948,29.33"
   style="fill:none;stroke:black;stroke-width:1.72px;stroke-linecap:round;"
   id="path24" />
            </g>
            <g
   transform="matrix(2.50857e-16,-4.09682,4.09682,2.50857e-16,236.604,908.645)"
   id="g25">
                <path
   d="M39.948,40.407L39.948,29.33"
   style="fill:none;stroke:black;stroke-width:2px;stroke-linecap:round;"
   id="path25" />
            </g>
            <g
   transform="matrix(2.52635e-16,-4.12586,7.61681,4.66394e-16,204.257,909.805)"
   id="g26">
                <path
   d="M39.948,40.141L39.948,29.33"
   style="fill:none;stroke:black;stroke-width:1.34px;stroke-linecap:round;"
   id="path26" />
            </g>
            <g
   transform="matrix(2.50857e-16,-4.09682,4.09682,2.50857e-16,273.695,750.869)"
   id="g27">
                <path
   d="M39.948,40.407L39.948,29.33"
   style="fill:none;stroke:black;stroke-width:2px;stroke-linecap:round;"
   id="path27" />
            </g>
            <g
   transform="matrix(2.50857e-16,-4.09682,0.311238,1.90578e-17,452.263,750.869)"
   id="g28">
                <path
   d="M39.948,40.407L39.948,29.33"
   style="fill:none;stroke:black;stroke-width:2.82px;stroke-linecap:round;"
   id="path28" />
            </g>
            <g
   transform="matrix(-2.50857e-16,4.09682,0.783837,4.79961e-17,502.182,561.607)"
   id="g29">
                <path
   d="M39.948,40.407L39.948,29.33"
   style="fill:none;stroke:black;stroke-width:2.78px;stroke-linecap:round;"
   id="path29" />
            </g>
            <g
   transform="matrix(2.50857e-16,-4.09682,4.09682,2.50857e-16,252.788,829.757)"
   id="g30">
                <path
   d="M39.948,40.407L39.948,29.33"
   style="fill:none;stroke:black;stroke-width:2px;stroke-linecap:round;"
   id="path30" />
            </g>
            <g
   transform="matrix(2.50857e-16,-4.09682,3.83115,2.3459e-16,330.009,829.757)"
   id="g31">
                <path
   d="M39.948,40.407L39.948,29.33"
   style="fill:none;stroke:black;stroke-width:2.07px;stroke-linecap:round;"
   id="path31" />
            </g>
        </g>
    </g>
</svg>
