<?xml version="1.0" encoding="UTF-8" standalone="no"?>
<!DOCTYPE svg PUBLIC "-//W3C//DTD SVG 1.1//EN" "http://www.w3.org/Graphics/SVG/1.1/DTD/svg11.dtd">
<svg width="100%" height="100%" viewBox="0 0 142 124" version="1.1" xmlns="http://www.w3.org/2000/svg" xmlns:xlink="http://www.w3.org/1999/xlink" xml:space="preserve" xmlns:serif="http://www.serif.com/" style="fill-rule:evenodd;clip-rule:evenodd;stroke-linecap:square;stroke-linejoin:round;stroke-miterlimit:1.5;">
    <g transform="matrix(1.49964e-17,0.24491,-0.24491,1.49964e-17,241.536,-55.4328)">
        <g transform="matrix(0.998123,1.91518e-32,-1.77753e-32,0.998123,2.14339,0.967873)">
            <path d="M477,415L721.219,556L721.219,838L477,979L232.781,838L232.781,556L477,415Z" style="fill:none;stroke:black;stroke-width:16.39px;"/>
        </g>
        <g transform="matrix(1.1274,1.2326e-32,-1.2326e-32,1.1274,-55.3216,-99.1756)">
            <g transform="matrix(1,0,0,1,19.5365,102.104)">
                <g transform="matrix(7.81041e-18,-0.127554,0.127554,7.81041e-18,519.617,725.571)">
                    <g>
                        <path d="M954.664,168L954.664,308.664L1076.48,238.332L954.664,308.664L1076.48,378.996L954.664,308.664L954.664,449.328L954.664,308.664L832.845,378.996L954.664,308.664L832.845,238.332L954.664,308.664L954.664,168Z" style="fill:rgb(153,153,153);fill-opacity:0;stroke:black;stroke-width:32.12px;stroke-linecap:round;stroke-miterlimit:4;"/>
                    </g>
                </g>
                <g transform="matrix(0.0451339,-0.0767292,0.0767292,0.0451339,492.217,663.287)">
                    <g>
                        <path d="M954.664,168L954.664,308.664L1076.48,238.332L954.664,308.664L1076.48,378.996L954.664,308.664L954.664,449.328L954.664,308.664L832.845,378.996L954.664,308.664L832.845,238.332L954.664,308.664L954.664,168Z" style="fill:rgb(153,153,153);fill-opacity:0;stroke:black;stroke-width:32.12px;stroke-linecap:round;stroke-miterlimit:4;"/>
                    </g>
                </g>
            </g>
            <g transform="matrix(-1,0,0,-1,1032.26,1418.32)">
                <g transform="matrix(7.81041e-18,-0.127554,0.127554,7.81041e-18,519.617,725.571)">
                    <g>
                        <path d="M954.664,168L954.664,308.664L1076.48,238.332L954.664,308.664L1076.48,378.996L954.664,308.664L954.664,449.328L954.664,308.664L832.845,378.996L954.664,308.664L832.845,238.332L954.664,308.664L954.664,168Z" style="fill:rgb(153,153,153);fill-opacity:0;stroke:black;stroke-width:32.12px;stroke-linecap:round;stroke-miterlimit:4;"/>
                    </g>
                </g>
                <g transform="matrix(0.0451339,-0.0767292,0.0767292,0.0451339,492.217,663.287)">
                    <g>
                        <path d="M954.664,168L954.664,308.664L1076.48,238.332L954.664,308.664L1076.48,378.996L954.664,308.664L954.664,449.328L954.664,308.664L832.845,378.996L954.664,308.664L832.845,238.332L954.664,308.664L954.664,168Z" style="fill:rgb(153,153,153);fill-opacity:0;stroke:black;stroke-width:32.12px;stroke-linecap:round;stroke-miterlimit:4;"/>
                    </g>
                </g>
            </g>
            <g transform="matrix(-1,0,0,-1,980.841,1356.34)">
                <g transform="matrix(7.81041e-18,-0.127554,0.127554,7.81041e-18,519.617,725.571)">
                    <g>
                        <path d="M954.664,168L954.664,308.664L1076.48,238.332L954.664,308.664L1076.48,378.996L954.664,308.664L954.664,449.328L954.664,308.664L832.845,378.996L954.664,308.664L832.845,238.332L954.664,308.664L954.664,168Z" style="fill:rgb(153,153,153);fill-opacity:0;stroke:black;stroke-width:32.12px;stroke-linecap:round;stroke-miterlimit:4;"/>
                    </g>
                </g>
                <g transform="matrix(0.0451339,-0.0767292,0.0767292,0.0451339,492.217,663.287)">
                    <g>
                        <path d="M954.664,168L954.664,308.664L1076.48,238.332L954.664,308.664L1076.48,378.996L954.664,308.664L954.664,449.328L954.664,308.664L832.845,378.996L954.664,308.664L832.845,238.332L954.664,308.664L954.664,168Z" style="fill:rgb(153,153,153);fill-opacity:0;stroke:black;stroke-width:32.12px;stroke-linecap:round;stroke-miterlimit:4;"/>
                    </g>
                </g>
            </g>
            <g transform="matrix(-1,0,0,-1,1083.69,1356.34)">
                <g transform="matrix(7.81041e-18,-0.127554,0.127554,7.81041e-18,519.617,725.571)">
                    <g>
                        <path d="M954.664,168L954.664,308.664L1076.48,238.332L954.664,308.664L1076.48,378.996L954.664,308.664L954.664,449.328L954.664,308.664L832.845,378.996L954.664,308.664L832.845,238.332L954.664,308.664L954.664,168Z" style="fill:rgb(153,153,153);fill-opacity:0;stroke:black;stroke-width:32.12px;stroke-linecap:round;stroke-miterlimit:4;"/>
                    </g>
                </g>
                <g transform="matrix(0.0451339,-0.0767292,0.0767292,0.0451339,492.217,663.287)">
                    <g>
                        <path d="M954.664,168L954.664,308.664L1076.48,238.332L954.664,308.664L1076.48,378.996L954.664,308.664L954.664,449.328L954.664,308.664L832.845,378.996L954.664,308.664L832.845,238.332L954.664,308.664L954.664,168Z" style="fill:rgb(153,153,153);fill-opacity:0;stroke:black;stroke-width:32.12px;stroke-linecap:round;stroke-miterlimit:4;"/>
                    </g>
                </g>
            </g>
            <g transform="matrix(-1,0,0,-1,1083.64,1263.15)">
                <g transform="matrix(7.81041e-18,-0.127554,0.127554,7.81041e-18,519.617,725.571)">
                    <g>
                        <path d="M954.664,168L954.664,308.664L1076.48,238.332L954.664,308.664L1076.48,378.996L954.664,308.664L954.664,449.328L954.664,308.664L832.845,378.996L954.664,308.664L832.845,238.332L954.664,308.664L954.664,168Z" style="fill:rgb(153,153,153);fill-opacity:0;stroke:black;stroke-width:32.12px;stroke-linecap:round;stroke-miterlimit:4;"/>
                    </g>
                </g>
                <g transform="matrix(0.0451339,-0.0767292,0.0767292,0.0451339,492.217,663.287)">
                    <g>
                        <path d="M954.664,168L954.664,308.664L1076.48,238.332L954.664,308.664L1076.48,378.996L954.664,308.664L954.664,449.328L954.664,308.664L832.845,378.996L954.664,308.664L832.845,238.332L954.664,308.664L954.664,168Z" style="fill:rgb(153,153,153);fill-opacity:0;stroke:black;stroke-width:32.12px;stroke-linecap:round;stroke-miterlimit:4;"/>
                    </g>
                </g>
            </g>
            <g transform="matrix(-1,0,0,-1,1119.57,1216.49)">
                <g transform="matrix(7.81041e-18,-0.127554,0.127554,7.81041e-18,519.617,725.571)">
                    <g>
                        <path d="M954.664,168L954.664,308.664L1076.48,238.332L954.664,308.664L1076.48,378.996L954.664,308.664L954.664,449.328L954.664,308.664L832.845,378.996L954.664,308.664L832.845,238.332L954.664,308.664L954.664,168Z" style="fill:rgb(153,153,153);fill-opacity:0;stroke:black;stroke-width:32.12px;stroke-linecap:round;stroke-miterlimit:4;"/>
                    </g>
                </g>
                <g transform="matrix(0.0451339,-0.0767292,0.0767292,0.0451339,492.217,663.287)">
                    <g>
                        <path d="M954.664,168L954.664,308.664L1076.48,238.332L954.664,308.664L1076.48,378.996L954.664,308.664L954.664,449.328L954.664,308.664L832.845,378.996L954.664,308.664L832.845,238.332L954.664,308.664L954.664,168Z" style="fill:rgb(153,153,153);fill-opacity:0;stroke:black;stroke-width:32.12px;stroke-linecap:round;stroke-miterlimit:4;"/>
                    </g>
                </g>
            </g>
            <g transform="matrix(-1,0,0,-1,944.957,1216.49)">
                <g transform="matrix(7.81041e-18,-0.127554,0.127554,7.81041e-18,519.617,725.571)">
                    <g>
                        <path d="M954.664,168L954.664,308.664L1076.48,238.332L954.664,308.664L1076.48,378.996L954.664,308.664L954.664,449.328L954.664,308.664L832.845,378.996L954.664,308.664L832.845,238.332L954.664,308.664L954.664,168Z" style="fill:rgb(153,153,153);fill-opacity:0;stroke:black;stroke-width:32.12px;stroke-linecap:round;stroke-miterlimit:4;"/>
                    </g>
                </g>
                <g transform="matrix(0.0451339,-0.0767292,0.0767292,0.0451339,492.217,663.287)">
                    <g>
                        <path d="M954.664,168L954.664,308.664L1076.48,238.332L954.664,308.664L1076.48,378.996L954.664,308.664L954.664,449.328L954.664,308.664L832.845,378.996L954.664,308.664L832.845,238.332L954.664,308.664L954.664,168Z" style="fill:rgb(153,153,153);fill-opacity:0;stroke:black;stroke-width:32.12px;stroke-linecap:round;stroke-miterlimit:4;"/>
                    </g>
                </g>
            </g>
            <g transform="matrix(-1,0,0,-1,944.957,1402.95)">
                <g transform="matrix(7.81041e-18,-0.127554,0.127554,7.81041e-18,519.617,725.571)">
                    <g>
                        <path d="M954.664,168L954.664,308.664L1076.48,238.332L954.664,308.664L1076.48,378.996L954.664,308.664L954.664,449.328L954.664,308.664L832.845,378.996L954.664,308.664L832.845,238.332L954.664,308.664L954.664,168Z" style="fill:rgb(153,153,153);fill-opacity:0;stroke:black;stroke-width:32.12px;stroke-linecap:round;stroke-miterlimit:4;"/>
                    </g>
                </g>
                <g transform="matrix(0.0451339,-0.0767292,0.0767292,0.0451339,492.217,663.287)">
                    <g>
                        <path d="M954.664,168L954.664,308.664L1076.48,238.332L954.664,308.664L1076.48,378.996L954.664,308.664L954.664,449.328L954.664,308.664L832.845,378.996L954.664,308.664L832.845,238.332L954.664,308.664L954.664,168Z" style="fill:rgb(153,153,153);fill-opacity:0;stroke:black;stroke-width:32.12px;stroke-linecap:round;stroke-miterlimit:4;"/>
                    </g>
                </g>
            </g>
            <g transform="matrix(-1,0,0,-1,1119.57,1402.95)">
                <g transform="matrix(7.81041e-18,-0.127554,0.127554,7.81041e-18,519.617,725.571)">
                    <g>
                        <path d="M954.664,168L954.664,308.664L1076.48,238.332L954.664,308.664L1076.48,378.996L954.664,308.664L954.664,449.328L954.664,308.664L832.845,378.996L954.664,308.664L832.845,238.332L954.664,308.664L954.664,168Z" style="fill:rgb(153,153,153);fill-opacity:0;stroke:black;stroke-width:32.12px;stroke-linecap:round;stroke-miterlimit:4;"/>
                    </g>
                </g>
                <g transform="matrix(0.0451339,-0.0767292,0.0767292,0.0451339,492.217,663.287)">
                    <g>
                        <path d="M954.664,168L954.664,308.664L1076.48,238.332L954.664,308.664L1076.48,378.996L954.664,308.664L954.664,449.328L954.664,308.664L832.845,378.996L954.664,308.664L832.845,238.332L954.664,308.664L954.664,168Z" style="fill:rgb(153,153,153);fill-opacity:0;stroke:black;stroke-width:32.12px;stroke-linecap:round;stroke-miterlimit:4;"/>
                    </g>
                </g>
            </g>
            <g transform="matrix(-1,0,0,-1,980.841,1263.11)">
                <g transform="matrix(7.81041e-18,-0.127554,0.127554,7.81041e-18,519.617,725.571)">
                    <g>
                        <path d="M954.664,168L954.664,308.664L1076.48,238.332L954.664,308.664L1076.48,378.996L954.664,308.664L954.664,449.328L954.664,308.664L832.845,378.996L954.664,308.664L832.845,238.332L954.664,308.664L954.664,168Z" style="fill:rgb(153,153,153);fill-opacity:0;stroke:black;stroke-width:32.12px;stroke-linecap:round;stroke-miterlimit:4;"/>
                    </g>
                </g>
                <g transform="matrix(0.0451339,-0.0767292,0.0767292,0.0451339,492.217,663.287)">
                    <g>
                        <path d="M954.664,168L954.664,308.664L1076.48,238.332L954.664,308.664L1076.48,378.996L954.664,308.664L954.664,449.328L954.664,308.664L832.845,378.996L954.664,308.664L832.845,238.332L954.664,308.664L954.664,168Z" style="fill:rgb(153,153,153);fill-opacity:0;stroke:black;stroke-width:32.12px;stroke-linecap:round;stroke-miterlimit:4;"/>
                    </g>
                </g>
            </g>
            <g transform="matrix(-1,0,0,-1,1032.26,1200.79)">
                <g transform="matrix(7.81041e-18,-0.127554,0.127554,7.81041e-18,519.617,725.571)">
                    <g>
                        <path d="M954.664,168L954.664,308.664L1076.48,238.332L954.664,308.664L1076.48,378.996L954.664,308.664L954.664,449.328L954.664,308.664L832.845,378.996L954.664,308.664L832.845,238.332L954.664,308.664L954.664,168Z" style="fill:rgb(153,153,153);fill-opacity:0;stroke:black;stroke-width:32.12px;stroke-linecap:round;stroke-miterlimit:4;"/>
                    </g>
                </g>
                <g transform="matrix(0.0451339,-0.0767292,0.0767292,0.0451339,492.217,663.287)">
                    <g>
                        <path d="M954.664,168L954.664,308.664L1076.48,238.332L954.664,308.664L1076.48,378.996L954.664,308.664L954.664,449.328L954.664,308.664L832.845,378.996L954.664,308.664L832.845,238.332L954.664,308.664L954.664,168Z" style="fill:rgb(153,153,153);fill-opacity:0;stroke:black;stroke-width:32.12px;stroke-linecap:round;stroke-miterlimit:4;"/>
                    </g>
                </g>
            </g>
            <g transform="matrix(-1,0,0,-1,1032.26,1309.72)">
                <g transform="matrix(7.81041e-18,-0.127554,0.127554,7.81041e-18,519.617,725.571)">
                    <g>
                        <path d="M954.664,168L954.664,308.664L1076.48,238.332L954.664,308.664L1076.48,378.996L954.664,308.664L954.664,449.328L954.664,308.664L832.845,378.996L954.664,308.664L832.845,238.332L954.664,308.664L954.664,168Z" style="fill:rgb(153,153,153);fill-opacity:0;stroke:black;stroke-width:32.12px;stroke-linecap:round;stroke-miterlimit:4;"/>
                    </g>
                </g>
                <g transform="matrix(0.0451339,-0.0767292,0.0767292,0.0451339,492.217,663.287)">
                    <g>
                        <path d="M954.664,168L954.664,308.664L1076.48,238.332L954.664,308.664L1076.48,378.996L954.664,308.664L954.664,449.328L954.664,308.664L832.845,378.996L954.664,308.664L832.845,238.332L954.664,308.664L954.664,168Z" style="fill:rgb(153,153,153);fill-opacity:0;stroke:black;stroke-width:32.12px;stroke-linecap:round;stroke-miterlimit:4;"/>
                    </g>
                </g>
            </g>
            <g transform="matrix(-1,0,0,-1,927.015,1309.71)">
                <g transform="matrix(7.81041e-18,-0.127554,0.127554,7.81041e-18,519.617,725.571)">
                    <g>
                        <path d="M954.664,168L954.664,308.664L1076.48,238.332L954.664,308.664L1076.48,378.996L954.664,308.664L954.664,449.328L954.664,308.664L832.845,378.996L954.664,308.664L832.845,238.332L954.664,308.664L954.664,168Z" style="fill:rgb(153,153,153);fill-opacity:0;stroke:black;stroke-width:32.12px;stroke-linecap:round;stroke-miterlimit:4;"/>
                    </g>
                </g>
                <g transform="matrix(0.0451339,-0.0767292,0.0767292,0.0451339,492.217,663.287)">
                    <g>
                        <path d="M954.664,168L954.664,308.664L1076.48,238.332L954.664,308.664L1076.48,378.996L954.664,308.664L954.664,449.328L954.664,308.664L832.845,378.996L954.664,308.664L832.845,238.332L954.664,308.664L954.664,168Z" style="fill:rgb(153,153,153);fill-opacity:0;stroke:black;stroke-width:32.12px;stroke-linecap:round;stroke-miterlimit:4;"/>
                    </g>
                </g>
            </g>
        </g>
    </g>
</svg>
