<?xml version="1.0" encoding="UTF-8" standalone="no"?>
<svg
   width="100%"
   height="100%"
   viewBox="0 0 142 124"
   version="1.1"
   xml:space="preserve"
   style="fill-rule:evenodd;clip-rule:evenodd;stroke-linecap:square;stroke-linejoin:round;stroke-miterlimit:1.5;"
   id="svg73"
   sodipodi:docname="whiteouthex.svg"
   inkscape:version="1.4.1 (93de688d07, 2025-03-30)"
   xmlns:inkscape="http://www.inkscape.org/namespaces/inkscape"
   xmlns:sodipodi="http://sodipodi.sourceforge.net/DTD/sodipodi-0.dtd"
   xmlns="http://www.w3.org/2000/svg"
   xmlns:svg="http://www.w3.org/2000/svg"><defs
   id="defs73" /><sodipodi:namedview
   id="namedview73"
   pagecolor="#ffffff"
   bordercolor="#000000"
   borderopacity="0.25"
   inkscape:showpageshadow="2"
   inkscape:pageopacity="0.0"
   inkscape:pagecheckerboard="0"
   inkscape:deskcolor="#d1d1d1"
   inkscape:zoom="7.0967742"
   inkscape:cx="71.018182"
   inkscape:cy="62"
   inkscape:window-width="2048"
   inkscape:window-height="1088"
   inkscape:window-x="0"
   inkscape:window-y="0"
   inkscape:window-maximized="1"
   inkscape:current-layer="g72" />
    <g
   transform="matrix(1.49933e-17,0.244859,-0.244859,1.49933e-17,241.501,-55.4083)"
   id="g73">
        <g
   id="g72">
            <g
   transform="matrix(0.998123,1.91518e-32,-1.77753e-32,0.998123,2.14339,0.967873)"
   id="g1"
   style="fill:#ffffff;fill-opacity:1">
                <path
   d="M477,415L721.219,556L721.219,838L477,979L232.781,838L232.781,556L477,415Z"
   style="fill:#ffffff;stroke:black;stroke-width:16.39px;fill-opacity:1"
   id="path1" />
            </g>
            <g
   transform="matrix(1.93622e-17,-0.316209,0.316209,1.93622e-17,380.855,985.673)"
   id="g15">
                <g
   transform="matrix(1,0,0,1,-40.6641,-0.664057)"
   id="g2">
                    <path
   d="M954.664,168L954.664,308.664L1076.48,238.332L954.664,308.664L1076.48,378.996L954.664,308.664L954.664,449.328L954.664,308.664L832.845,378.996L954.664,308.664L832.845,238.332L954.664,308.664L954.664,168Z"
   style="fill:rgb(153,153,153);fill-opacity:0;stroke:black;stroke-width:15.62px;stroke-linecap:round;stroke-miterlimit:4;"
   id="path2" />
                </g>
                <g
   transform="matrix(1,0,0,1,0,40)"
   id="g3">
                    <path
   d="M914,167.336C922.763,158.573 931.526,149.81 940.288,141.048"
   style="fill:none;stroke:black;stroke-width:15.62px;stroke-linecap:round;stroke-miterlimit:4;"
   id="path3" />
                </g>
                <g
   transform="matrix(0.499492,0.866318,-0.866318,0.499492,688.249,-616.604)"
   id="g4">
                    <path
   d="M914,167.336C922.763,158.573 931.526,149.81 940.288,141.048"
   style="fill:none;stroke:black;stroke-width:15.62px;stroke-linecap:round;stroke-miterlimit:4;"
   id="path4" />
                </g>
                <g
   transform="matrix(1,0,0,1,0,40)"
   id="g5">
                    <path
   d="M914,167.336C905.171,158.507 896.341,149.677 887.512,140.848"
   style="fill:none;stroke:black;stroke-width:15.62px;stroke-linecap:round;stroke-miterlimit:4;"
   id="path5" />
                </g>
                <g
   transform="matrix(0.499492,0.866318,-0.866318,0.499492,688.249,-616.604)"
   id="g6">
                    <path
   d="M914,167.336C905.171,158.507 896.341,149.677 887.512,140.848"
   style="fill:none;stroke:black;stroke-width:15.62px;stroke-linecap:round;stroke-miterlimit:4;"
   id="path6" />
                </g>
                <g
   transform="matrix(-1,-0.00029897,0.00029897,-1,1827.92,576.273)"
   id="g7">
                    <path
   d="M914,167.336C922.763,158.573 931.526,149.81 940.288,141.048"
   style="fill:none;stroke:black;stroke-width:15.62px;stroke-linecap:round;stroke-miterlimit:4;"
   id="path7" />
                </g>
                <g
   transform="matrix(-0.499233,-0.866468,0.866468,-0.499233,1139.47,1232.67)"
   id="g8">
                    <path
   d="M914,167.336C922.763,158.573 931.526,149.81 940.288,141.048"
   style="fill:none;stroke:black;stroke-width:15.62px;stroke-linecap:round;stroke-miterlimit:4;"
   id="path8" />
                </g>
                <g
   transform="matrix(-1,-0.00029897,0.00029897,-1,1827.92,576.273)"
   id="g9">
                    <path
   d="M914,167.336C905.171,158.507 896.341,149.677 887.512,140.848"
   style="fill:none;stroke:black;stroke-width:15.62px;stroke-linecap:round;stroke-miterlimit:4;"
   id="path9" />
                </g>
                <g
   transform="matrix(-0.499233,-0.866468,0.866468,-0.499233,1139.47,1232.67)"
   id="g10">
                    <path
   d="M914,167.336C905.171,158.507 896.341,149.677 887.512,140.848"
   style="fill:none;stroke:black;stroke-width:15.62px;stroke-linecap:round;stroke-miterlimit:4;"
   id="path10" />
                </g>
                <g
   transform="matrix(0.499628,-0.86624,0.86624,0.499628,225.188,965.843)"
   id="g11">
                    <path
   d="M914,167.336C922.763,158.573 931.526,149.81 940.288,141.048"
   style="fill:none;stroke:black;stroke-width:15.62px;stroke-linecap:round;stroke-miterlimit:4;"
   id="path11" />
                </g>
                <g
   transform="matrix(0.499628,-0.86624,0.86624,0.499628,225.188,965.843)"
   id="g12">
                    <path
   d="M914,167.336C905.171,158.507 896.341,149.677 887.512,140.848"
   style="fill:none;stroke:black;stroke-width:15.62px;stroke-linecap:round;stroke-miterlimit:4;"
   id="path12" />
                </g>
                <g
   transform="matrix(-0.499887,0.866091,-0.866091,-0.499887,1603.01,-349.637)"
   id="g13">
                    <path
   d="M914,167.336C922.763,158.573 931.526,149.81 940.288,141.048"
   style="fill:none;stroke:black;stroke-width:15.62px;stroke-linecap:round;stroke-miterlimit:4;"
   id="path13" />
                </g>
                <g
   transform="matrix(-0.499887,0.866091,-0.866091,-0.499887,1603.01,-349.637)"
   id="g14">
                    <path
   d="M914,167.336C905.171,158.507 896.341,149.677 887.512,140.848"
   style="fill:none;stroke:black;stroke-width:15.62px;stroke-linecap:round;stroke-miterlimit:4;"
   id="path14" />
                </g>
            </g>
            <g
   transform="matrix(1.93458e-17,-0.315942,0.315942,1.93458e-17,497.047,1095.46)"
   id="g29">
                <g
   transform="matrix(1,0,0,1,-40.6641,-0.664057)"
   id="g16">
                    <path
   d="M954.664,168L954.664,308.664L1076.48,238.332L954.664,308.664L1076.48,378.996L954.664,308.664L954.664,449.328L954.664,308.664L832.845,378.996L954.664,308.664L832.845,238.332L954.664,308.664L954.664,168Z"
   style="fill:rgb(153,153,153);fill-opacity:0;stroke:black;stroke-width:15.62px;stroke-linecap:round;stroke-miterlimit:4;"
   id="path15" />
                </g>
                <g
   transform="matrix(1,0,0,1,0,40)"
   id="g17">
                    <path
   d="M914,167.336C922.763,158.573 931.526,149.81 940.288,141.048"
   style="fill:none;stroke:black;stroke-width:15.62px;stroke-linecap:round;stroke-miterlimit:4;"
   id="path16" />
                </g>
                <g
   transform="matrix(0.499492,0.866318,-0.866318,0.499492,688.249,-616.604)"
   id="g18">
                    <path
   d="M914,167.336C922.763,158.573 931.526,149.81 940.288,141.048"
   style="fill:none;stroke:black;stroke-width:15.62px;stroke-linecap:round;stroke-miterlimit:4;"
   id="path17" />
                </g>
                <g
   transform="matrix(1,0,0,1,0,40)"
   id="g19">
                    <path
   d="M914,167.336C905.171,158.507 896.341,149.677 887.512,140.848"
   style="fill:none;stroke:black;stroke-width:15.62px;stroke-linecap:round;stroke-miterlimit:4;"
   id="path18" />
                </g>
                <g
   transform="matrix(0.499492,0.866318,-0.866318,0.499492,688.249,-616.604)"
   id="g20">
                    <path
   d="M914,167.336C905.171,158.507 896.341,149.677 887.512,140.848"
   style="fill:none;stroke:black;stroke-width:15.62px;stroke-linecap:round;stroke-miterlimit:4;"
   id="path19" />
                </g>
                <g
   transform="matrix(-1,-0.00029897,0.00029897,-1,1827.92,576.273)"
   id="g21">
                    <path
   d="M914,167.336C922.763,158.573 931.526,149.81 940.288,141.048"
   style="fill:none;stroke:black;stroke-width:15.62px;stroke-linecap:round;stroke-miterlimit:4;"
   id="path20" />
                </g>
                <g
   transform="matrix(-0.499233,-0.866468,0.866468,-0.499233,1139.47,1232.67)"
   id="g22">
                    <path
   d="M914,167.336C922.763,158.573 931.526,149.81 940.288,141.048"
   style="fill:none;stroke:black;stroke-width:15.62px;stroke-linecap:round;stroke-miterlimit:4;"
   id="path21" />
                </g>
                <g
   transform="matrix(-1,-0.00029897,0.00029897,-1,1827.92,576.273)"
   id="g23">
                    <path
   d="M914,167.336C905.171,158.507 896.341,149.677 887.512,140.848"
   style="fill:none;stroke:black;stroke-width:15.62px;stroke-linecap:round;stroke-miterlimit:4;"
   id="path22" />
                </g>
                <g
   transform="matrix(-0.499233,-0.866468,0.866468,-0.499233,1139.47,1232.67)"
   id="g24">
                    <path
   d="M914,167.336C905.171,158.507 896.341,149.677 887.512,140.848"
   style="fill:none;stroke:black;stroke-width:15.62px;stroke-linecap:round;stroke-miterlimit:4;"
   id="path23" />
                </g>
                <g
   transform="matrix(0.499628,-0.86624,0.86624,0.499628,225.188,965.843)"
   id="g25">
                    <path
   d="M914,167.336C922.763,158.573 931.526,149.81 940.288,141.048"
   style="fill:none;stroke:black;stroke-width:15.62px;stroke-linecap:round;stroke-miterlimit:4;"
   id="path24" />
                </g>
                <g
   transform="matrix(0.499628,-0.86624,0.86624,0.499628,225.188,965.843)"
   id="g26">
                    <path
   d="M914,167.336C905.171,158.507 896.341,149.677 887.512,140.848"
   style="fill:none;stroke:black;stroke-width:15.62px;stroke-linecap:round;stroke-miterlimit:4;"
   id="path25" />
                </g>
                <g
   transform="matrix(-0.499887,0.866091,-0.866091,-0.499887,1603.01,-349.637)"
   id="g27">
                    <path
   d="M914,167.336C922.763,158.573 931.526,149.81 940.288,141.048"
   style="fill:none;stroke:black;stroke-width:15.62px;stroke-linecap:round;stroke-miterlimit:4;"
   id="path26" />
                </g>
                <g
   transform="matrix(-0.499887,0.866091,-0.866091,-0.499887,1603.01,-349.637)"
   id="g28">
                    <path
   d="M914,167.336C905.171,158.507 896.341,149.677 887.512,140.848"
   style="fill:none;stroke:black;stroke-width:15.62px;stroke-linecap:round;stroke-miterlimit:4;"
   id="path27" />
                </g>
            </g>
            <g
   transform="matrix(1.93458e-17,-0.315942,0.315942,1.93458e-17,497.047,875.399)"
   id="g43">
                <g
   transform="matrix(1,0,0,1,-40.6641,-0.664057)"
   id="g30">
                    <path
   d="M954.664,168L954.664,308.664L1076.48,238.332L954.664,308.664L1076.48,378.996L954.664,308.664L954.664,449.328L954.664,308.664L832.845,378.996L954.664,308.664L832.845,238.332L954.664,308.664L954.664,168Z"
   style="fill:rgb(153,153,153);fill-opacity:0;stroke:black;stroke-width:15.62px;stroke-linecap:round;stroke-miterlimit:4;"
   id="path29" />
                </g>
                <g
   transform="matrix(1,0,0,1,0,40)"
   id="g31">
                    <path
   d="M914,167.336C922.763,158.573 931.526,149.81 940.288,141.048"
   style="fill:none;stroke:black;stroke-width:15.62px;stroke-linecap:round;stroke-miterlimit:4;"
   id="path30" />
                </g>
                <g
   transform="matrix(0.499492,0.866318,-0.866318,0.499492,688.249,-616.604)"
   id="g32">
                    <path
   d="M914,167.336C922.763,158.573 931.526,149.81 940.288,141.048"
   style="fill:none;stroke:black;stroke-width:15.62px;stroke-linecap:round;stroke-miterlimit:4;"
   id="path31" />
                </g>
                <g
   transform="matrix(1,0,0,1,0,40)"
   id="g33">
                    <path
   d="M914,167.336C905.171,158.507 896.341,149.677 887.512,140.848"
   style="fill:none;stroke:black;stroke-width:15.62px;stroke-linecap:round;stroke-miterlimit:4;"
   id="path32" />
                </g>
                <g
   transform="matrix(0.499492,0.866318,-0.866318,0.499492,688.249,-616.604)"
   id="g34">
                    <path
   d="M914,167.336C905.171,158.507 896.341,149.677 887.512,140.848"
   style="fill:none;stroke:black;stroke-width:15.62px;stroke-linecap:round;stroke-miterlimit:4;"
   id="path33" />
                </g>
                <g
   transform="matrix(-1,-0.00029897,0.00029897,-1,1827.92,576.273)"
   id="g35">
                    <path
   d="M914,167.336C922.763,158.573 931.526,149.81 940.288,141.048"
   style="fill:none;stroke:black;stroke-width:15.62px;stroke-linecap:round;stroke-miterlimit:4;"
   id="path34" />
                </g>
                <g
   transform="matrix(-0.499233,-0.866468,0.866468,-0.499233,1139.47,1232.67)"
   id="g36">
                    <path
   d="M914,167.336C922.763,158.573 931.526,149.81 940.288,141.048"
   style="fill:none;stroke:black;stroke-width:15.62px;stroke-linecap:round;stroke-miterlimit:4;"
   id="path35" />
                </g>
                <g
   transform="matrix(-1,-0.00029897,0.00029897,-1,1827.92,576.273)"
   id="g37">
                    <path
   d="M914,167.336C905.171,158.507 896.341,149.677 887.512,140.848"
   style="fill:none;stroke:black;stroke-width:15.62px;stroke-linecap:round;stroke-miterlimit:4;"
   id="path36" />
                </g>
                <g
   transform="matrix(-0.499233,-0.866468,0.866468,-0.499233,1139.47,1232.67)"
   id="g38">
                    <path
   d="M914,167.336C905.171,158.507 896.341,149.677 887.512,140.848"
   style="fill:none;stroke:black;stroke-width:15.62px;stroke-linecap:round;stroke-miterlimit:4;"
   id="path37" />
                </g>
                <g
   transform="matrix(0.499628,-0.86624,0.86624,0.499628,225.188,965.843)"
   id="g39">
                    <path
   d="M914,167.336C922.763,158.573 931.526,149.81 940.288,141.048"
   style="fill:none;stroke:black;stroke-width:15.62px;stroke-linecap:round;stroke-miterlimit:4;"
   id="path38" />
                </g>
                <g
   transform="matrix(0.499628,-0.86624,0.86624,0.499628,225.188,965.843)"
   id="g40">
                    <path
   d="M914,167.336C905.171,158.507 896.341,149.677 887.512,140.848"
   style="fill:none;stroke:black;stroke-width:15.62px;stroke-linecap:round;stroke-miterlimit:4;"
   id="path39" />
                </g>
                <g
   transform="matrix(-0.499887,0.866091,-0.866091,-0.499887,1603.01,-349.637)"
   id="g41">
                    <path
   d="M914,167.336C922.763,158.573 931.526,149.81 940.288,141.048"
   style="fill:none;stroke:black;stroke-width:15.62px;stroke-linecap:round;stroke-miterlimit:4;"
   id="path40" />
                </g>
                <g
   transform="matrix(-0.499887,0.866091,-0.866091,-0.499887,1603.01,-349.637)"
   id="g42">
                    <path
   d="M914,167.336C905.171,158.507 896.341,149.677 887.512,140.848"
   style="fill:none;stroke:black;stroke-width:15.62px;stroke-linecap:round;stroke-miterlimit:4;"
   id="path41" />
                </g>
            </g>
            <g
   transform="matrix(1.93458e-17,-0.315942,0.315942,1.93458e-17,264.829,875.399)"
   id="g57">
                <g
   transform="matrix(1,0,0,1,-40.6641,-0.664057)"
   id="g44">
                    <path
   d="M954.664,168L954.664,308.664L1076.48,238.332L954.664,308.664L1076.48,378.996L954.664,308.664L954.664,449.328L954.664,308.664L832.845,378.996L954.664,308.664L832.845,238.332L954.664,308.664L954.664,168Z"
   style="fill:rgb(153,153,153);fill-opacity:0;stroke:black;stroke-width:15.62px;stroke-linecap:round;stroke-miterlimit:4;"
   id="path43" />
                </g>
                <g
   transform="matrix(1,0,0,1,0,40)"
   id="g45">
                    <path
   d="M914,167.336C922.763,158.573 931.526,149.81 940.288,141.048"
   style="fill:none;stroke:black;stroke-width:15.62px;stroke-linecap:round;stroke-miterlimit:4;"
   id="path44" />
                </g>
                <g
   transform="matrix(0.499492,0.866318,-0.866318,0.499492,688.249,-616.604)"
   id="g46">
                    <path
   d="M914,167.336C922.763,158.573 931.526,149.81 940.288,141.048"
   style="fill:none;stroke:black;stroke-width:15.62px;stroke-linecap:round;stroke-miterlimit:4;"
   id="path45" />
                </g>
                <g
   transform="matrix(1,0,0,1,0,40)"
   id="g47">
                    <path
   d="M914,167.336C905.171,158.507 896.341,149.677 887.512,140.848"
   style="fill:none;stroke:black;stroke-width:15.62px;stroke-linecap:round;stroke-miterlimit:4;"
   id="path46" />
                </g>
                <g
   transform="matrix(0.499492,0.866318,-0.866318,0.499492,688.249,-616.604)"
   id="g48">
                    <path
   d="M914,167.336C905.171,158.507 896.341,149.677 887.512,140.848"
   style="fill:none;stroke:black;stroke-width:15.62px;stroke-linecap:round;stroke-miterlimit:4;"
   id="path47" />
                </g>
                <g
   transform="matrix(-1,-0.00029897,0.00029897,-1,1827.92,576.273)"
   id="g49">
                    <path
   d="M914,167.336C922.763,158.573 931.526,149.81 940.288,141.048"
   style="fill:none;stroke:black;stroke-width:15.62px;stroke-linecap:round;stroke-miterlimit:4;"
   id="path48" />
                </g>
                <g
   transform="matrix(-0.499233,-0.866468,0.866468,-0.499233,1139.47,1232.67)"
   id="g50">
                    <path
   d="M914,167.336C922.763,158.573 931.526,149.81 940.288,141.048"
   style="fill:none;stroke:black;stroke-width:15.62px;stroke-linecap:round;stroke-miterlimit:4;"
   id="path49" />
                </g>
                <g
   transform="matrix(-1,-0.00029897,0.00029897,-1,1827.92,576.273)"
   id="g51">
                    <path
   d="M914,167.336C905.171,158.507 896.341,149.677 887.512,140.848"
   style="fill:none;stroke:black;stroke-width:15.62px;stroke-linecap:round;stroke-miterlimit:4;"
   id="path50" />
                </g>
                <g
   transform="matrix(-0.499233,-0.866468,0.866468,-0.499233,1139.47,1232.67)"
   id="g52">
                    <path
   d="M914,167.336C905.171,158.507 896.341,149.677 887.512,140.848"
   style="fill:none;stroke:black;stroke-width:15.62px;stroke-linecap:round;stroke-miterlimit:4;"
   id="path51" />
                </g>
                <g
   transform="matrix(0.499628,-0.86624,0.86624,0.499628,225.188,965.843)"
   id="g53">
                    <path
   d="M914,167.336C922.763,158.573 931.526,149.81 940.288,141.048"
   style="fill:none;stroke:black;stroke-width:15.62px;stroke-linecap:round;stroke-miterlimit:4;"
   id="path52" />
                </g>
                <g
   transform="matrix(0.499628,-0.86624,0.86624,0.499628,225.188,965.843)"
   id="g54">
                    <path
   d="M914,167.336C905.171,158.507 896.341,149.677 887.512,140.848"
   style="fill:none;stroke:black;stroke-width:15.62px;stroke-linecap:round;stroke-miterlimit:4;"
   id="path53" />
                </g>
                <g
   transform="matrix(-0.499887,0.866091,-0.866091,-0.499887,1603.01,-349.637)"
   id="g55">
                    <path
   d="M914,167.336C922.763,158.573 931.526,149.81 940.288,141.048"
   style="fill:none;stroke:black;stroke-width:15.62px;stroke-linecap:round;stroke-miterlimit:4;"
   id="path54" />
                </g>
                <g
   transform="matrix(-0.499887,0.866091,-0.866091,-0.499887,1603.01,-349.637)"
   id="g56">
                    <path
   d="M914,167.336C905.171,158.507 896.341,149.677 887.512,140.848"
   style="fill:none;stroke:black;stroke-width:15.62px;stroke-linecap:round;stroke-miterlimit:4;"
   id="path55" />
                </g>
            </g>
            <g
   transform="matrix(1.93458e-17,-0.315942,0.315942,1.93458e-17,264.829,1095.46)"
   id="g71">
                <g
   transform="matrix(1,0,0,1,-40.6641,-0.664057)"
   id="g58">
                    <path
   d="M954.664,168L954.664,308.664L1076.48,238.332L954.664,308.664L1076.48,378.996L954.664,308.664L954.664,449.328L954.664,308.664L832.845,378.996L954.664,308.664L832.845,238.332L954.664,308.664L954.664,168Z"
   style="fill:rgb(153,153,153);fill-opacity:0;stroke:black;stroke-width:15.62px;stroke-linecap:round;stroke-miterlimit:4;"
   id="path57" />
                </g>
                <g
   transform="matrix(1,0,0,1,0,40)"
   id="g59">
                    <path
   d="M914,167.336C922.763,158.573 931.526,149.81 940.288,141.048"
   style="fill:none;stroke:black;stroke-width:15.62px;stroke-linecap:round;stroke-miterlimit:4;"
   id="path58" />
                </g>
                <g
   transform="matrix(0.499492,0.866318,-0.866318,0.499492,688.249,-616.604)"
   id="g60">
                    <path
   d="M914,167.336C922.763,158.573 931.526,149.81 940.288,141.048"
   style="fill:none;stroke:black;stroke-width:15.62px;stroke-linecap:round;stroke-miterlimit:4;"
   id="path59" />
                </g>
                <g
   transform="matrix(1,0,0,1,0,40)"
   id="g61">
                    <path
   d="M914,167.336C905.171,158.507 896.341,149.677 887.512,140.848"
   style="fill:none;stroke:black;stroke-width:15.62px;stroke-linecap:round;stroke-miterlimit:4;"
   id="path60" />
                </g>
                <g
   transform="matrix(0.499492,0.866318,-0.866318,0.499492,688.249,-616.604)"
   id="g62">
                    <path
   d="M914,167.336C905.171,158.507 896.341,149.677 887.512,140.848"
   style="fill:none;stroke:black;stroke-width:15.62px;stroke-linecap:round;stroke-miterlimit:4;"
   id="path61" />
                </g>
                <g
   transform="matrix(-1,-0.00029897,0.00029897,-1,1827.92,576.273)"
   id="g63">
                    <path
   d="M914,167.336C922.763,158.573 931.526,149.81 940.288,141.048"
   style="fill:none;stroke:black;stroke-width:15.62px;stroke-linecap:round;stroke-miterlimit:4;"
   id="path62" />
                </g>
                <g
   transform="matrix(-0.499233,-0.866468,0.866468,-0.499233,1139.47,1232.67)"
   id="g64">
                    <path
   d="M914,167.336C922.763,158.573 931.526,149.81 940.288,141.048"
   style="fill:none;stroke:black;stroke-width:15.62px;stroke-linecap:round;stroke-miterlimit:4;"
   id="path63" />
                </g>
                <g
   transform="matrix(-1,-0.00029897,0.00029897,-1,1827.92,576.273)"
   id="g65">
                    <path
   d="M914,167.336C905.171,158.507 896.341,149.677 887.512,140.848"
   style="fill:none;stroke:black;stroke-width:15.62px;stroke-linecap:round;stroke-miterlimit:4;"
   id="path64" />
                </g>
                <g
   transform="matrix(-0.499233,-0.866468,0.866468,-0.499233,1139.47,1232.67)"
   id="g66">
                    <path
   d="M914,167.336C905.171,158.507 896.341,149.677 887.512,140.848"
   style="fill:none;stroke:black;stroke-width:15.62px;stroke-linecap:round;stroke-miterlimit:4;"
   id="path65" />
                </g>
                <g
   transform="matrix(0.499628,-0.86624,0.86624,0.499628,225.188,965.843)"
   id="g67">
                    <path
   d="M914,167.336C922.763,158.573 931.526,149.81 940.288,141.048"
   style="fill:none;stroke:black;stroke-width:15.62px;stroke-linecap:round;stroke-miterlimit:4;"
   id="path66" />
                </g>
                <g
   transform="matrix(0.499628,-0.86624,0.86624,0.499628,225.188,965.843)"
   id="g68">
                    <path
   d="M914,167.336C905.171,158.507 896.341,149.677 887.512,140.848"
   style="fill:none;stroke:black;stroke-width:15.62px;stroke-linecap:round;stroke-miterlimit:4;"
   id="path67" />
                </g>
                <g
   transform="matrix(-0.499887,0.866091,-0.866091,-0.499887,1603.01,-349.637)"
   id="g69">
                    <path
   d="M914,167.336C922.763,158.573 931.526,149.81 940.288,141.048"
   style="fill:none;stroke:black;stroke-width:15.62px;stroke-linecap:round;stroke-miterlimit:4;"
   id="path68" />
                </g>
                <g
   transform="matrix(-0.499887,0.866091,-0.866091,-0.499887,1603.01,-349.637)"
   id="g70">
                    <path
   d="M914,167.336C905.171,158.507 896.341,149.677 887.512,140.848"
   style="fill:none;stroke:black;stroke-width:15.62px;stroke-linecap:round;stroke-miterlimit:4;"
   id="path69" />
                </g>
            </g>
        </g>
    </g>
</svg>
