<?xml version="1.0" encoding="UTF-8" standalone="no"?>
<svg
   width="100%"
   height="100%"
   viewBox="0 0 142 124"
   version="1.1"
   xml:space="preserve"
   style="fill-rule:evenodd;clip-rule:evenodd;stroke-linecap:square;stroke-linejoin:round;stroke-miterlimit:1.5;"
   id="svg6"
   sodipodi:docname="windhex.svg"
   inkscape:version="1.4.1 (93de688d07, 2025-03-30)"
   xmlns:inkscape="http://www.inkscape.org/namespaces/inkscape"
   xmlns:sodipodi="http://sodipodi.sourceforge.net/DTD/sodipodi-0.dtd"
   xmlns="http://www.w3.org/2000/svg"
   xmlns:svg="http://www.w3.org/2000/svg"><defs
   id="defs6" /><sodipodi:namedview
   id="namedview6"
   pagecolor="#ffffff"
   bordercolor="#000000"
   borderopacity="0.25"
   inkscape:showpageshadow="2"
   inkscape:pageopacity="0.0"
   inkscape:pagecheckerboard="0"
   inkscape:deskcolor="#d1d1d1"
   inkscape:zoom="7.0967742"
   inkscape:cx="71.018182"
   inkscape:cy="62"
   inkscape:window-width="2048"
   inkscape:window-height="1088"
   inkscape:window-x="0"
   inkscape:window-y="0"
   inkscape:window-maximized="1"
   inkscape:current-layer="g6" />
    <g
   transform="matrix(1.49964e-17,0.24491,-0.24491,1.49964e-17,241.536,-55.4328)"
   id="g6">
        <g
   transform="matrix(0.998123,1.91518e-32,-1.77753e-32,0.998123,2.14339,0.967873)"
   id="g1"
   style="fill:#ffffff;fill-opacity:1">
            <path
   d="M477,415L721.219,556L721.219,838L477,979L232.781,838L232.781,556L477,415Z"
   style="fill:#ffffff;stroke:black;stroke-width:16.39px;fill-opacity:1"
   id="path1" />
        </g>
        <g
   transform="matrix(1.95221,-2.46142e-32,2.46142e-32,1.95221,-623.337,-826.04)"
   id="g5">
            <g
   transform="matrix(2.50857e-16,-4.09682,4.09682,2.50857e-16,224.245,987.533)"
   id="g2">
                <path
   d="M30.345,78.387C30.345,78.387 49.041,78.399 53.351,78.387C62.958,78.362 62.958,67.632 53.351,67.632"
   style="fill:none;stroke:black;stroke-width:2px;stroke-linecap:round;"
   id="path2" />
            </g>
            <g
   transform="matrix(2.50857e-16,-4.09682,-4.09682,-2.50857e-16,904.307,955.26)"
   id="g3">
                <path
   d="M30.345,78.387C30.345,78.387 49.041,78.399 53.351,78.387C62.958,78.362 62.958,67.632 53.351,67.632"
   style="fill:none;stroke:black;stroke-width:2px;stroke-linecap:round;"
   id="path3" />
            </g>
            <g
   transform="matrix(2.50857e-16,-4.09682,-4.09682,-2.50857e-16,885.435,971.397)"
   id="g4">
                <path
   d="M30.345,78.387C30.345,78.387 54.419,78.399 58.728,78.387"
   style="fill:none;stroke:black;stroke-width:2px;stroke-linecap:round;"
   id="path4" />
            </g>
        </g>
    </g>
</svg>
